<?xml version="1.0" encoding="utf-8"?>
<!-- Generator: Adobe Illustrator 25.0.0, SVG Export Plug-In . SVG Version: 6.00 Build 0)  -->
<svg version="1.1" id="Layer_1" xmlns="http://www.w3.org/2000/svg" xmlns:xlink="http://www.w3.org/1999/xlink" x="0px" y="0px"
	 viewBox="0 0 504 108" style="enable-background:new 0 0 504 108;" xml:space="preserve">
<style type="text/css">
	.st0{fill:#FFFFFF;}
</style>
<g>
	<path class="st0" d="M288,72h36v36h-36V72z"/>
	<path class="st0" d="M180,72h36v36h-36V72z"/>
	<path class="st0" d="M252,0h36v36h-36V0z"/>
	<path class="st0" d="M216,36h36v36h-36V36z"/>
	<path class="st0" d="M180,72h36v36h-36V72z"/>
</g>
<path class="st0" d="M144,0h36v36h-36V0z"/>
<g>
	<path class="st0" d="M252,72h36v36h-36V72z"/>
	<path class="st0" d="M144,72h36v36h-36V72z"/>
	<path class="st0" d="M468,72h36v36h-36V72z"/>
</g>
<g>
	<path class="st0" d="M432,0h36v72h-36V0z"/>
	<path class="st0" d="M396,36h36v36h-36V36z"/>
	<path class="st0" d="M360,72h36v36h-36V72z"/>
</g>
<path class="st0" d="M288,36h36v36h-36V36z"/>
<g>
	<path class="st0" d="M180,36h36v36h-36V36z"/>
	<path class="st0" d="M144,72h36v36h-36V72z"/>
	<path class="st0" d="M72,36h36v72H72V36z"/>
	<path class="st0" d="M108,72h36v36h-36V72z"/>
	<path class="st0" d="M0,72h36v36H0V72z"/>
</g>
</svg>
