<svg id="Layer_1" data-name="Layer 1" xmlns="http://www.w3.org/2000/svg" viewBox="0 0 217.489 179.01"><defs><style>.cls-1{fill:#fff;}</style></defs><path class="cls-1" d="M217.107,40.457a89.774,89.774,0,0,1-22,6.271c3.538-.595,8.731-7,10.815-9.588a40.32,40.32,0,0,0,7.3-13.312c.189-.38.33-.857-.049-1.145a1.253,1.253,0,0,0-1.166.1,112.212,112.212,0,0,1-26.078,9.977,1.744,1.744,0,0,1-1.8-.476,21.29,21.29,0,0,0-2.279-2.33,46.116,46.116,0,0,0-12.634-7.74,43.966,43.966,0,0,0-19.373-3.121,46.33,46.33,0,0,0-18.382,5.192A47.373,47.373,0,0,0,116.64,36.4a45.537,45.537,0,0,0-8.855,17.737,48.027,48.027,0,0,0-.469,18.726c.14,1.046.048,1.188-.9,1.046C70.6,68.574,40.91,55.758,16.808,28.294c-1.046-1.192-1.613-1.192-2.471.092C3.791,44.194,8.908,69.591,22.082,82.073c1.757,1.664,3.563,3.328,5.508,4.846-.71.146-9.478-.8-17.291-4.846-1.046-.661-1.571-.282-1.664.905a27.278,27.278,0,0,0,.284,5.133c2.024,16.024,13.121,30.846,28.318,36.629a26.755,26.755,0,0,0,5.746,1.756c-3.462.76-7.029,1.3-16.959.526-1.236-.238-1.708.38-1.236,1.567,7.462,20.339,23.57,26.39,35.632,29.838,1.615.282,3.231.282,4.851.661-.1.146-.2.146-.288.287-4,6.1-17.873,10.64-24.333,12.9A87.152,87.152,0,0,1,3.692,177c-1.987-.292-2.4-.27-2.943,0-.545.337-.069.812.569,1.327,2.52,1.664,5.084,3.139,7.7,4.564a121.979,121.979,0,0,0,24.705,9.882c44.4,12.261,94.407,3.252,127.743-29.869,26.178-26.01,35.354-61.879,35.354-97.793,0-1.407,1.661-2.183,2.647-2.925a86.353,86.353,0,0,0,17.385-18.079A5.492,5.492,0,0,0,218,40.645v-.188C218,39.883,217.99,40.055,217.107,40.457Z" transform="translate(-0.511 -19)"/></svg>