<svg width="42" height="40" viewBox="0 0 42 40" fill="none" xmlns="http://www.w3.org/2000/svg">
<path d="M14.0183 7.54324C15.6511 4.96373 22.3456 2.58015 23.4559 3.39645C23.8151 3.82093 21.6925 5.87802 20.6801 6.92288C19.8964 7.70653 19.2433 8.68606 18.6881 9.66562L14.0183 7.54324Z" fill="#FBBC7F"/>
<path d="M15.4878 7.41269C16.7941 5.29029 21.8557 3.26583 22.6395 3.85358C22.9007 4.1801 21.2026 5.74742 20.4189 6.59638C19.8311 7.24943 19.0473 8.03306 18.6228 8.84937L15.4878 7.41269Z" fill="#F5A8AE"/>
<path d="M17.8064 6.40048C18.3616 5.94335 19.2433 5.323 19.8964 4.96383C20.8761 4.40874 22.7048 3.85365 22.7048 3.85365C21.9211 3.29857 16.7941 5.29034 15.5531 7.41272L16.3369 7.77188C16.6961 7.2168 17.2513 6.7923 17.8064 6.40048Z" fill="#FEDBA9"/>
<path d="M7.94418 7.77192C8.532 4.76792 13.9857 0.229239 15.2593 0.523109C15.7818 0.784326 14.4755 3.49446 13.9204 4.76789C13.4632 5.78011 13.1692 6.95562 13.006 8.0658L7.94418 7.77192Z" fill="#FBBC7F"/>
<path d="M9.28314 7.11876C9.74033 4.66987 13.7571 0.980203 14.7368 1.24142C15.096 1.46998 14.051 3.49438 13.6264 4.5719C13.2999 5.3882 12.8427 6.43306 12.7121 7.31467L9.28314 7.11876Z" fill="#F5A8AE"/>
<path d="M11.1119 5.35576C11.4711 4.70272 12.0916 3.8211 12.5488 3.26601C13.2999 2.4497 14.8021 1.24158 14.7694 1.24158C13.7897 1.01301 9.77299 4.70272 9.3158 7.119L10.1975 7.15164C10.3608 6.53125 10.7853 5.97616 11.1119 5.35576Z" fill="#FEDBA9"/>
<path d="M38.1512 22.4C39.5881 22.1388 40.6985 21.4204 41.4822 19.5266C42.2333 21.0613 41.9068 23.7387 40.1433 24.6203C39.6208 24.1632 38.8044 23.249 38.4778 22.6286L38.1512 22.4Z" fill="#FBBC7F"/>
<path d="M29.6933 32.1303C29.3341 33.3384 31.1301 36.2118 31.8812 37.224C32.1425 37.5832 30.8036 37.3547 30.7383 38.922C31.8486 38.9546 32.0772 38.9546 33.1548 38.9546C33.9712 37.42 34.6896 33.8609 34.6896 32.0977H29.6933V32.1303Z" fill="#FBBC7F"/>
<path d="M29.6933 32.1303C29.3341 33.3384 31.1301 36.2118 31.8812 37.224C32.1425 37.5832 30.8036 37.3547 30.7383 38.922C31.8486 38.9546 32.0772 38.9546 33.1548 38.9546C33.9712 37.42 34.6896 33.8609 34.6896 32.0977H29.6933V32.1303Z" fill="#FBBC7F"/>
<path d="M18.0676 32.1303C17.7084 33.3384 19.5045 36.2118 20.2556 37.224C20.5169 37.5832 19.178 37.3547 19.1127 38.922C20.223 38.9546 20.4516 38.9546 21.5292 38.9546C22.3456 37.42 23.064 33.8609 23.064 32.0977H18.0676V32.1303Z" fill="#FBBC7F"/>
<path d="M13.0059 32.1303C12.6467 33.3384 14.4428 36.2118 15.1939 37.224C15.4552 37.5832 14.1163 37.3547 14.051 38.922C15.1613 38.9546 15.3899 38.9546 16.4675 38.9546C17.2839 37.42 18.0023 33.8609 18.0023 32.0977H13.0059V32.1303Z" fill="#FBBC7F"/>
<path d="M34.4611 29.257C32.7956 32.1631 35.4408 36.3425 36.2245 37.3548C36.4858 37.7139 35.4081 37.3874 35.3102 38.9874C36.4205 39.02 36.6817 39.02 37.7594 39.02C39.0003 37.4527 40.7311 30.8896 40.6332 28.3428L34.4611 29.257Z" fill="#FBBC7F"/>
<path d="M10.6873 30.6937C16.2716 33.8283 23.162 33.6977 27.6033 33.5018C30.0852 33.4038 36.8124 34.4813 39.2942 31.6406C41.0577 29.7141 41.3843 24.7837 39.3269 22.498C37.2043 20.1471 34.0039 19.9512 31.1955 19.2002C28.5177 18.4492 24.1744 18.841 22.6069 16.4247C21.3659 14.4983 20.125 10.6127 18.2963 8.9474C15.1613 6.04136 9.21782 5.29038 5.85423 9.20863C4.64594 10.58 4.74389 12.3432 3.50295 13.6167C2.42529 14.6942 0.465908 14.7268 0.26997 15.7064C-0.187218 18.2532 4.71123 19.3961 5.62561 21.0287C6.70327 22.7919 9.02186 29.7794 10.6873 30.6937Z" fill="#FFB359"/>
<path d="M19.9618 29.8773C19.9618 28.1794 19.4393 26.4162 18.5249 25.0775C17.5126 23.6081 15.9777 22.6286 15.0633 21.0939C14.3122 19.7552 14.2796 18.3511 14.051 16.8818C13.8224 15.5104 13.5285 13.5839 11.4058 13.9104C10.0669 14.139 8.92395 15.2165 7.71566 15.7716C5.82159 16.5879 2.68657 16.6532 0.923127 15.4125C0.89047 15.3798 0.825189 15.3145 0.792533 15.2818C0.661908 15.4777 0.367985 15.641 0.367985 15.9349C0.106734 18.4817 2.71923 20.5715 4.35204 21.4204C6.11549 22.4 6.14817 27.2978 10.2629 31.5426C11.8304 33.1752 15.0307 34.7425 17.9044 34.9058C18.3616 34.9384 19.3413 32.9793 19.4719 32.5875C19.8312 31.7712 19.9618 30.7916 19.9618 29.8773Z" fill="#FEDBA9"/>
<path d="M4.5807 16.0981C4.8093 16.9797 3.27441 17.894 2.88253 18.1225C2.32737 18.449 2.00083 18.4817 1.44567 18.0899C0.988474 17.7307 -0.0891973 16.294 0.302683 15.6084C0.923161 14.5309 4.38476 15.4125 4.5807 16.0981Z" fill="#4A403E"/>
<path d="M9.74028 13.4207C9.70763 13.4207 9.60969 13.3881 9.60969 13.3228C9.51172 12.9963 9.34841 12.8003 9.08717 12.7677C8.85858 12.735 8.5647 12.8004 8.33611 13.0289C8.30346 13.0616 8.20547 13.0616 8.1075 13.0289C8.07484 12.9963 8.07484 12.8983 8.1075 12.8004C8.36874 12.5391 8.7933 12.3759 9.11986 12.4412C9.44641 12.5391 9.70763 12.7677 9.87091 13.1922C9.90357 13.2901 9.87091 13.3881 9.74028 13.4207C9.80559 13.4207 9.80559 13.4207 9.74028 13.4207Z" fill="#945E3C"/>
<path d="M6.50737 12.7677C6.47472 12.7677 6.37674 12.735 6.37674 12.6697C6.27877 12.3432 6.1155 12.1473 5.85425 12.1146C5.593 12.082 5.33173 12.1473 5.10314 12.3758C5.07048 12.4085 4.97253 12.4085 4.87456 12.3758C4.8419 12.3432 4.8419 12.2453 4.87456 12.1473C5.13581 11.8861 5.56033 11.7228 5.8869 11.7881C6.21346 11.886 6.47469 12.1146 6.63797 12.5391C6.67062 12.6371 6.638 12.735 6.50737 12.7677Z" fill="#945E3C"/>
<path d="M3.82954 20.3105C3.69891 20.3105 3.60095 20.3104 3.47033 20.2778C3.04579 20.1472 2.78452 19.8207 2.71921 19.2982C2.71921 19.2003 2.75187 19.1676 2.84984 19.1023C2.94781 19.1023 2.98046 19.135 3.04577 19.233C3.07843 19.5921 3.2744 19.886 3.56831 19.9839C3.92753 20.1145 4.45001 19.9513 4.6786 19.6574C4.80923 19.5268 4.90722 19.233 4.77659 18.9064C4.74393 18.8085 4.77658 18.7105 4.80924 18.7105C4.90721 18.6779 5.00517 18.7105 5.00517 18.7432C5.20111 19.1024 5.13583 19.5268 4.87458 19.8207C4.67864 20.1145 4.25408 20.3105 3.82954 20.3105Z" fill="#945E3C"/>
<path opacity="0.3" d="M2.58859 15.5103C2.71922 15.543 3.37232 15.7062 3.17638 15.9348C3.04576 16.1307 2.42531 16.0327 2.26203 16.0327C1.93547 16.0001 1.60891 15.9348 1.28234 15.9021C1.05375 15.8695 0.629201 15.6736 1.02108 15.543C1.24967 15.445 1.47826 15.5103 1.70685 15.5103C2.06607 15.4124 2.36 15.445 2.58859 15.5103Z" fill="#BEC0C2"/>
</svg>
