<svg width="231" height="27" viewBox="0 0 231 27" fill="none" xmlns="http://www.w3.org/2000/svg">
<path d="M0.0161367 13.279C-0.044907 11.7737 0.192738 10.2712 0.715362 8.85813C1.23799 7.44509 2.03525 6.14953 3.06114 5.04619C4.08703 3.94286 5.32124 3.05359 6.69258 2.42969C8.06391 1.80579 9.54521 1.45961 11.051 1.41113H11.5189C17.3387 1.41113 20.7736 4.83457 21.7892 8.83999L18.1718 10.0496C17.8468 8.55701 16.996 7.23099 15.7747 6.31344C14.5534 5.39589 13.043 4.94797 11.5189 5.05139C7.75311 5.05139 3.97591 7.80155 3.97591 13.3475C3.97591 18.8935 7.66182 21.5409 11.5645 21.5409C13.0962 21.5828 14.5976 21.1097 15.8286 20.1973C17.0595 19.285 17.9489 17.9861 18.3543 16.5085L21.9033 17.6496C21.2907 19.9036 19.9281 21.8815 18.0403 23.2569C16.1524 24.6323 13.8521 25.3231 11.5189 25.2154C8.52142 25.2704 5.62477 24.1329 3.46567 22.053C1.30656 19.9731 0.0617015 17.1209 0.00472718 14.1235C-0.00668428 13.8496 0.00472526 13.5643 0.0161367 13.279Z" fill="white"/>
<path d="M28.9441 24.6901H25.2012V1.34229H28.9441V10.4714C29.4875 9.82696 30.1709 9.31511 30.9422 8.97495C31.7135 8.63479 32.5523 8.47531 33.3946 8.50868C37.2631 8.50868 39.1003 11.2817 39.1003 14.7393V24.6901H35.4943V15.4012C35.6024 14.6093 35.395 13.8067 34.9168 13.1664C34.4387 12.526 33.7281 12.0991 32.9381 11.9778C32.7143 11.9548 32.4887 11.9548 32.2649 11.9778C31.3993 11.9778 30.5692 12.3216 29.9571 12.9337C29.345 13.5457 29.0012 14.3759 29.0012 15.2414C28.9955 15.3364 28.9955 15.4317 29.0012 15.5267L28.9441 24.6901Z" fill="white"/>
<path d="M47.4996 15.6978L51.5164 15.0702C52.4293 14.9561 52.6575 14.4882 52.6575 13.929C52.6575 12.6053 51.7674 11.5441 49.6905 11.5441C48.9062 11.4806 48.1284 11.729 47.526 12.2353C46.9236 12.7416 46.545 13.465 46.4725 14.2486V14.4197L43.0491 13.6552C43.3344 10.9392 45.7992 8.52002 49.6563 8.52002C54.4948 8.52002 56.332 11.2588 56.332 14.454V22.248C56.3281 23.0925 56.3929 23.936 56.526 24.7699H53.1026C52.9792 24.108 52.9295 23.4344 52.9542 22.7615C52.4346 23.5612 51.7144 24.2107 50.8654 24.6452C50.0164 25.0797 49.0684 25.2841 48.1158 25.2378C46.8147 25.3452 45.5242 24.9322 44.5272 24.0893C43.5303 23.2464 42.9084 22.0425 42.798 20.7417C42.798 20.6618 42.798 20.5819 42.798 20.5135C42.741 17.6264 44.8064 16.0744 47.4996 15.6978ZM52.6804 18.2198V17.5008L48.5836 18.1171C48.0275 18.1347 47.4997 18.3666 47.1105 18.7642C46.7214 19.1619 46.501 19.6946 46.4953 20.251C46.4997 20.5267 46.559 20.7988 46.6696 21.0513C46.7803 21.3039 46.9401 21.5319 47.1398 21.722C47.3395 21.9122 47.5751 22.0606 47.8328 22.1588C48.0905 22.2569 48.3651 22.3028 48.6407 22.2936H48.8119C49.279 22.3425 49.7511 22.2985 50.2011 22.1641C50.6512 22.0298 51.0701 21.8077 51.434 21.5107C51.7978 21.2137 52.0992 20.8477 52.321 20.4337C52.5427 20.0197 52.6804 19.5659 52.726 19.0984C52.7423 18.8043 52.7231 18.5093 52.6689 18.2198H52.6804Z" fill="white"/>
<path d="M62.6988 1.02282C63.0205 1.0183 63.3399 1.07737 63.6386 1.19664C63.9374 1.31591 64.2096 1.49304 64.4397 1.71783C64.6698 1.94263 64.8532 2.21068 64.9794 2.50657C65.1056 2.80247 65.1721 3.12038 65.1751 3.44205C65.1751 3.92357 65.0327 4.39434 64.7658 4.79516C64.499 5.19597 64.1196 5.50896 63.6753 5.69475C63.2311 5.88055 62.7419 5.93087 62.2691 5.83938C61.7963 5.7479 61.3612 5.51869 61.0183 5.18058C60.6755 4.84247 60.4402 4.41055 60.3422 3.93911C60.2441 3.46768 60.2876 2.97777 60.4672 2.531C60.6468 2.08422 60.9545 1.7005 61.3516 1.4281C61.7486 1.15569 62.2174 1.00675 62.6988 1V1.02282ZM60.873 24.7587V8.98802H64.616V24.6902L60.873 24.7587Z" fill="white"/>
<path d="M73.1417 24.6904H69.4102V8.98826H73.0504V11.0766C73.525 10.2747 74.2066 9.61526 75.0238 9.16751C75.841 8.71977 76.7636 8.50019 77.6949 8.5318C81.5291 8.5318 83.4006 11.3048 83.4006 14.7625V24.6904H79.6691V15.4015C79.6691 13.473 78.7904 11.9096 76.4396 11.9096C76.005 11.9126 75.5753 12.0011 75.1749 12.1702C74.7745 12.3393 74.4114 12.5856 74.1062 12.895C73.8011 13.2044 73.5598 13.5709 73.3963 13.9736C73.2327 14.3762 73.1501 14.8071 73.1531 15.2417C73.1531 15.3673 73.1531 15.4928 73.1531 15.6183L73.1417 24.6904Z" fill="white"/>
<path d="M87.9199 24.6901V1.34229H91.6629V24.6901H87.9199Z" fill="white"/>
<path d="M98.3372 1.02249C98.8189 1.02023 99.2904 1.16115 99.6919 1.42737C100.093 1.69358 100.407 2.07307 100.592 2.51768C100.777 2.96228 100.827 3.45194 100.733 3.9245C100.64 4.39706 100.408 4.83121 100.067 5.17182C99.7267 5.51244 99.2926 5.74417 98.82 5.83759C98.3475 5.93101 97.8578 5.88192 97.4132 5.69654C96.9686 5.51115 96.5891 5.19784 96.3229 4.79638C96.0567 4.39492 95.9157 3.92341 95.918 3.44171C95.9239 2.80194 96.1808 2.19005 96.6332 1.73764C97.0856 1.28523 97.6975 1.02844 98.3372 1.02249ZM96.5 24.7583V8.98768H100.209V24.6898L96.5 24.7583Z" fill="white"/>
<path d="M108.79 24.6902H105.047V8.98804H108.687V11.0763C109.163 10.2753 109.844 9.61654 110.661 9.16892C111.478 8.72129 112.401 8.50119 113.332 8.53158C117.166 8.53158 119.037 11.3046 119.037 14.7622V24.6902H115.294V15.4013C115.402 14.6094 115.195 13.8068 114.717 13.1665C114.239 12.5261 113.528 12.0992 112.738 11.9778C112.511 11.955 112.281 11.955 112.054 11.9778C111.182 11.9869 110.349 12.3395 109.736 12.9591C109.122 13.5788 108.778 14.4154 108.778 15.2872C108.767 15.42 108.767 15.5537 108.778 15.6866L108.79 24.6902Z" fill="white"/>
<path d="M131.807 15.618L138.391 24.7472H133.827L129.262 18.2769L127.334 20.3081V24.6901H123.625V1.34229H127.334V15.3327L133.359 8.98796H138.323L131.807 15.618Z" fill="white"/>
<rect x="145" width="86" height="27" rx="3" fill="#1A2B6B"/>
<path d="M162.467 18.3162L161.212 15.0898H156.095L154.873 18.3162H153.162L157.757 6.76298H159.599L164.194 18.3162H162.467ZM158.637 8.42508L156.666 13.6069H160.642L158.637 8.42508Z" fill="white"/>
<path d="M168.797 11.6515C168.135 11.6515 167.57 11.8905 167.103 12.3685C166.646 12.8465 166.418 13.52 166.418 14.3891C166.418 15.2473 166.646 15.9208 167.103 16.4097C167.57 16.8985 168.14 17.1429 168.814 17.1429C169.465 17.1429 169.96 16.98 170.296 16.6541C170.644 16.3282 170.878 15.9534 170.997 15.5297L172.35 16.1164C172.132 16.7682 171.719 17.3385 171.111 17.8273C170.514 18.3162 169.748 18.5606 168.814 18.5606C167.673 18.5606 166.728 18.1641 165.978 17.3711C165.229 16.5781 164.854 15.5841 164.854 14.3891C164.854 13.1724 165.229 12.1784 165.978 11.4071C166.728 10.6249 167.667 10.2338 168.797 10.2338C169.753 10.2338 170.525 10.4783 171.111 10.9671C171.709 11.456 172.1 12.0426 172.284 12.727L170.899 13.3136C170.78 12.8573 170.552 12.4663 170.215 12.1404C169.878 11.8145 169.406 11.6515 168.797 11.6515Z" fill="white"/>
<path d="M173.578 16.2141C173.578 15.5406 173.795 15.0029 174.23 14.6009C174.664 14.1881 175.24 13.9328 175.957 13.835L178.076 13.5254C178.477 13.4711 178.678 13.2756 178.678 12.9388C178.678 12.526 178.537 12.1892 178.255 11.9285C177.972 11.6678 177.549 11.5374 176.984 11.5374C176.462 11.5374 176.049 11.6841 175.745 11.9774C175.441 12.2599 175.262 12.6401 175.208 13.1181L173.741 12.7759C173.817 12.0263 174.159 11.4179 174.768 10.9508C175.376 10.4728 176.104 10.2338 176.951 10.2338C178.059 10.2338 178.879 10.5054 179.412 11.0486C179.944 11.5809 180.21 12.2653 180.21 13.1018V17.0289C180.21 17.496 180.243 17.9251 180.308 18.3162H178.809C178.754 17.9903 178.727 17.6372 178.727 17.257C178.51 17.6046 178.19 17.9088 177.766 18.1695C177.353 18.4303 176.832 18.5606 176.202 18.5606C175.43 18.5606 174.8 18.3325 174.311 17.8762C173.822 17.4091 173.578 16.8551 173.578 16.2141ZM176.413 17.2733C177.098 17.2733 177.646 17.0886 178.059 16.7193C178.472 16.3499 178.678 15.7633 178.678 14.9594V14.6009L176.283 14.9594C175.935 15.0137 175.658 15.1387 175.452 15.3342C175.246 15.5297 175.142 15.7959 175.142 16.1327C175.142 16.4368 175.256 16.703 175.485 16.9311C175.724 17.1592 176.033 17.2733 176.413 17.2733Z" fill="white"/>
<path d="M183.509 14.3728C183.509 15.1984 183.71 15.8719 184.112 16.3934C184.525 16.9148 185.09 17.1755 185.807 17.1755C186.491 17.1755 187.04 16.9094 187.452 16.3771C187.865 15.8448 188.072 15.1658 188.072 14.3402C188.072 13.5254 187.871 12.8682 187.469 12.3685C187.067 11.8688 186.518 11.6189 185.823 11.6189C185.128 11.6189 184.568 11.8742 184.144 12.3848C183.721 12.8954 183.509 13.558 183.509 14.3728ZM188.088 17.257V17.1267C187.881 17.5286 187.566 17.8654 187.143 18.1369C186.73 18.3977 186.236 18.528 185.66 18.528C184.541 18.528 183.639 18.1369 182.955 17.3548C182.281 16.5618 181.945 15.5678 181.945 14.3728C181.945 13.2321 182.292 12.2653 182.987 11.4723C183.683 10.6684 184.574 10.2664 185.66 10.2664C186.301 10.2664 186.822 10.3968 187.224 10.6575C187.626 10.9074 187.903 11.217 188.055 11.5863V6.51855H189.571V16.8659C189.571 17.3982 189.598 17.8817 189.652 18.3162H188.169C188.115 18.012 188.088 17.659 188.088 17.257Z" fill="white"/>
<path d="M193.17 13.5906H197.456C197.434 13.004 197.238 12.526 196.869 12.1567C196.5 11.7764 195.978 11.5863 195.305 11.5863C194.696 11.5863 194.197 11.7873 193.806 12.1892C193.415 12.5803 193.203 13.0475 193.17 13.5906ZM197.684 15.6275L199.004 16.0838C198.776 16.8116 198.352 17.4091 197.733 17.8762C197.114 18.3325 196.364 18.5606 195.484 18.5606C194.387 18.5606 193.453 18.1858 192.681 17.4363C191.921 16.6758 191.541 15.6547 191.541 14.3728C191.541 13.1778 191.91 12.1892 192.649 11.4071C193.387 10.6249 194.267 10.2338 195.288 10.2338C196.473 10.2338 197.396 10.6086 198.059 11.3582C198.721 12.0969 199.053 13.0909 199.053 14.3402C199.053 14.5357 199.042 14.6987 199.02 14.829H193.121C193.132 15.5243 193.36 16.0946 193.806 16.54C194.262 16.9854 194.821 17.2081 195.484 17.2081C196.603 17.2081 197.336 16.6813 197.684 15.6275Z" fill="white"/>
<path d="M202.523 18.3162H201.008V10.4783H202.474V11.5211C202.713 11.1083 203.05 10.7933 203.485 10.576C203.919 10.3588 204.376 10.2501 204.854 10.2501C205.364 10.2501 205.831 10.3751 206.255 10.6249C206.679 10.8748 206.994 11.2441 207.2 11.733C207.743 10.7444 208.618 10.2501 209.824 10.2501C210.573 10.2501 211.209 10.5054 211.73 11.016C212.262 11.5266 212.529 12.2653 212.529 13.2321V18.3162H211.013V13.3951C211.013 12.8519 210.872 12.4174 210.589 12.0915C210.318 11.7656 209.905 11.6026 209.351 11.6026C208.819 11.6026 208.384 11.7927 208.047 12.1729C207.711 12.5423 207.542 13.0094 207.542 13.5743V18.3162H206.01V13.3951C206.01 12.8519 205.869 12.4174 205.587 12.0915C205.315 11.7656 204.902 11.6026 204.348 11.6026C203.805 11.6026 203.365 11.7873 203.028 12.1567C202.692 12.526 202.523 13.004 202.523 13.5906V18.3162Z" fill="white"/>
<path d="M216.935 21.5915H215.257L217.212 17.4526L213.839 10.4783H215.599L218.043 15.8882L220.39 10.4783H222.035L216.935 21.5915Z" fill="white"/>
</svg>
