<svg width="16" height="20" viewBox="0 0 16 20" fill="none" xmlns="http://www.w3.org/2000/svg">
<path d="M14 0.000244141H4C2.93913 0.000244141 1.92172 0.421672 1.17157 1.17182C0.421427 1.92196 0 2.93938 0 4.00024V16.0002C0 17.0611 0.421427 18.0785 1.17157 18.8287C1.92172 19.5788 2.93913 20.0002 4 20.0002H14C14.5304 20.0002 15.0391 19.7895 15.4142 19.4145C15.7893 19.0394 16 18.5307 16 18.0002V2.00024C16 1.46981 15.7893 0.961103 15.4142 0.58603C15.0391 0.210958 14.5304 0.000244141 14 0.000244141ZM2 4.00024C2 3.46981 2.21071 2.9611 2.58579 2.58603C2.96086 2.21096 3.46957 2.00024 4 2.00024H14V12.0002H4C3.29504 12.0032 2.60399 12.1967 2 12.5602V4.00024ZM4 18.0002C3.46957 18.0002 2.96086 17.7895 2.58579 17.4145C2.21071 17.0394 2 16.5307 2 16.0002C2 15.4698 2.21071 14.9611 2.58579 14.586C2.96086 14.211 3.46957 14.0002 4 14.0002H14V18.0002H4ZM6 6.00024H10C10.2652 6.00024 10.5196 5.89489 10.7071 5.70735C10.8946 5.51981 11 5.26546 11 5.00024C11 4.73503 10.8946 4.48067 10.7071 4.29314C10.5196 4.1056 10.2652 4.00024 10 4.00024H6C5.73478 4.00024 5.48043 4.1056 5.29289 4.29314C5.10536 4.48067 5 4.73503 5 5.00024C5 5.26546 5.10536 5.51981 5.29289 5.70735C5.48043 5.89489 5.73478 6.00024 6 6.00024Z" fill="#1A2B6B"/>
</svg>
