<svg width="12" height="14" viewBox="0 0 12 14" fill="none" xmlns="http://www.w3.org/2000/svg">
<path d="M0.0799999 6.61994C0.127594 6.49719 0.19896 6.38505 0.290001 6.28994L5.29 1.28994C5.38324 1.1967 5.49393 1.12274 5.61575 1.07228C5.73757 1.02182 5.86814 0.99585 6 0.99585C6.2663 0.99585 6.5217 1.10164 6.71 1.28994C6.80324 1.38318 6.8772 1.49387 6.92766 1.61569C6.97812 1.73751 7.00409 1.86808 7.00409 1.99994C7.00409 2.26624 6.8983 2.52164 6.71 2.70994L3.41 5.99994H11C11.2652 5.99994 11.5196 6.1053 11.7071 6.29283C11.8946 6.48037 12 6.73472 12 6.99994C12 7.26516 11.8946 7.51951 11.7071 7.70705C11.5196 7.89458 11.2652 7.99994 11 7.99994H3.41L6.71 11.2899C6.80373 11.3829 6.87812 11.4935 6.92889 11.6154C6.97966 11.7372 7.0058 11.8679 7.0058 11.9999C7.0058 12.132 6.97966 12.2627 6.92889 12.3845C6.87812 12.5064 6.80373 12.617 6.71 12.7099C6.61704 12.8037 6.50644 12.8781 6.38458 12.9288C6.26272 12.9796 6.13201 13.0057 6 13.0057C5.86799 13.0057 5.73728 12.9796 5.61542 12.9288C5.49356 12.8781 5.38296 12.8037 5.29 12.7099L0.290001 7.70994C0.19896 7.61484 0.127594 7.50269 0.0799999 7.37994C-0.0200176 7.13648 -0.0200176 6.8634 0.0799999 6.61994Z" fill="#0C162C"/>
</svg>
