<svg width="20" height="20" viewBox="0 0 20 20" fill="none" xmlns="http://www.w3.org/2000/svg">
<path d="M10 0.000244141C8.02219 0.000244141 6.08879 0.586734 4.4443 1.68555C2.79981 2.78436 1.51809 4.34615 0.761209 6.17341C0.00433284 8.00067 -0.193701 10.0113 0.192152 11.9511C0.578004 13.891 1.53041 15.6728 2.92894 17.0713C4.32746 18.4698 6.10929 19.4222 8.0491 19.8081C9.98891 20.194 11.9996 19.9959 13.8268 19.239C15.6541 18.4822 17.2159 17.2004 18.3147 15.5559C19.4135 13.9115 20 11.9781 20 10.0002C20 8.68703 19.7413 7.38667 19.2388 6.17341C18.7363 4.96015 17.9997 3.85776 17.0711 2.92918C16.1425 2.00059 15.0401 1.264 13.8268 0.761449C12.6136 0.258902 11.3132 0.000244141 10 0.000244141ZM10 18.0002C8.41775 18.0002 6.87104 17.5311 5.55544 16.652C4.23985 15.7729 3.21447 14.5235 2.60897 13.0617C2.00347 11.5999 1.84504 9.99137 2.15372 8.43952C2.4624 6.88767 3.22433 5.46221 4.34315 4.34339C5.46197 3.22457 6.88743 2.46264 8.43928 2.15396C9.99113 1.84528 11.5997 2.00371 13.0615 2.60921C14.5233 3.21471 15.7727 4.24009 16.6518 5.55568C17.5308 6.87128 18 8.41799 18 10.0002C18 12.122 17.1572 14.1568 15.6569 15.6571C14.1566 17.1574 12.1217 18.0002 10 18.0002ZM13.1 10.6302L11 9.42024V5.00024C11 4.73503 10.8946 4.48067 10.7071 4.29314C10.5196 4.1056 10.2652 4.00024 10 4.00024C9.73479 4.00024 9.48043 4.1056 9.2929 4.29314C9.10536 4.48067 9 4.73503 9 5.00024V10.0002C9 10.0002 9 10.0802 9 10.1202C9.00593 10.1891 9.02281 10.2567 9.05 10.3202C9.0706 10.3796 9.09741 10.4366 9.13 10.4902C9.15737 10.5471 9.1909 10.6007 9.23 10.6502L9.39001 10.7802L9.48 10.8702L12.08 12.3702C12.2324 12.4566 12.4048 12.5015 12.58 12.5002C12.8014 12.5018 13.0171 12.4298 13.1932 12.2956C13.3693 12.1614 13.4959 11.9725 13.5531 11.7586C13.6103 11.5447 13.5948 11.3178 13.5092 11.1136C13.4236 10.9094 13.2726 10.7394 13.08 10.6302H13.1Z" fill="#1A2B6B"/>
</svg>
