<svg width="20" height="20" viewBox="0 0 20 20" fill="none" xmlns="http://www.w3.org/2000/svg">
<g clip-path="url(#clip0)">
<path d="M16.04 0H3.96093C3.12822 0 2.34534 0.324304 1.75654 0.913218C1.16778 1.50209 0.843594 2.28501 0.84375 3.11781L0.846244 14.4171C0.846555 16.1329 2.24262 17.531 3.95832 17.5337C4.57798 17.5347 6.60317 17.535 8.89715 17.535C11.8958 17.535 15.352 17.5345 16.7221 17.5342L19.1572 20V3.11718C19.1572 1.39837 17.7588 0 16.04 0ZM17.5986 16.2372L15.1881 13.7546L15.1828 15.9756L15.1831 15.9759C11.7223 15.9763 5.16798 15.977 3.96074 15.9751C3.10297 15.9738 2.40499 15.2747 2.40484 14.4168L2.40234 3.11746C2.40226 2.70108 2.56436 2.3096 2.85874 2.01518C3.15315 1.72076 3.54459 1.55859 3.96093 1.55859H16.04C16.8994 1.55859 17.5986 2.25778 17.5986 3.11718V16.2372ZM6.45468 6.54608C6.45468 5.68531 6.94314 4.98749 7.54569 4.98749C8.14824 4.98749 8.63671 5.68531 8.63671 6.54608C8.63671 7.40686 8.14824 8.10468 7.54569 8.10468C6.94314 8.10468 6.45468 7.40686 6.45468 6.54608ZM11.4032 6.54608C11.4032 5.68531 11.8917 4.98749 12.4942 4.98749C13.0968 4.98749 13.5852 5.68531 13.5852 6.54608C13.5852 7.40686 13.0968 8.10468 12.4942 8.10468C11.8917 8.10468 11.4032 7.40686 11.4032 6.54608ZM14.6739 9.8524L15.6917 11.0328C15.6126 11.1009 13.7126 12.7025 10.0005 12.7025C6.28834 12.7025 4.3883 11.1009 4.30924 11.0327L5.32704 9.85236L5.32267 9.84862C5.33818 9.8616 6.90698 11.1439 10.0005 11.1439C13.094 11.1439 14.6628 9.8616 14.6782 9.84866L14.6739 9.8524Z" fill="#0C162C"/>
</g>
<defs>
<clipPath id="clip0">
<rect width="20" height="20" fill="white"/>
</clipPath>
</defs>
</svg>
