<svg width="16" height="16" viewBox="0 0 16 16" fill="none" xmlns="http://www.w3.org/2000/svg">
<path d="M9.76194 8.00023L15.1369 2.63773C15.3723 2.40235 15.5045 2.08311 15.5045 1.75023C15.5045 1.41735 15.3723 1.09811 15.1369 0.862732C14.9016 0.627352 14.5823 0.495117 14.2494 0.495117C13.9166 0.495117 13.5973 0.627352 13.3619 0.862732L7.99944 6.23773L2.63694 0.862732C2.40156 0.627352 2.08231 0.495117 1.74944 0.495117C1.41656 0.495117 1.09732 0.627352 0.861935 0.862732C0.626556 1.09811 0.494321 1.41735 0.494321 1.75023C0.494321 2.08311 0.626556 2.40235 0.861935 2.63773L6.23694 8.00023L0.861935 13.3627C0.744775 13.4789 0.651782 13.6172 0.588321 13.7695C0.524861 13.9218 0.492188 14.0852 0.492188 14.2502C0.492188 14.4152 0.524861 14.5786 0.588321 14.731C0.651782 14.8833 0.744775 15.0215 0.861935 15.1377C0.978139 15.2549 1.11639 15.3479 1.26871 15.4113C1.42104 15.4748 1.58442 15.5075 1.74944 15.5075C1.91445 15.5075 2.07783 15.4748 2.23016 15.4113C2.38248 15.3479 2.52073 15.2549 2.63694 15.1377L7.99944 9.76273L13.3619 15.1377C13.4781 15.2549 13.6164 15.3479 13.7687 15.4113C13.921 15.4748 14.0844 15.5075 14.2494 15.5075C14.4145 15.5075 14.5778 15.4748 14.7302 15.4113C14.8825 15.3479 15.0207 15.2549 15.1369 15.1377C15.2541 15.0215 15.3471 14.8833 15.4106 14.731C15.474 14.5786 15.5067 14.4152 15.5067 14.2502C15.5067 14.0852 15.474 13.9218 15.4106 13.7695C15.3471 13.6172 15.2541 13.4789 15.1369 13.3627L9.76194 8.00023Z" fill="white"/>
</svg>
