<svg width="18" height="18" viewBox="0 0 18 18" fill="none" xmlns="http://www.w3.org/2000/svg">
<path d="M16.0585 0.666376H1.9418C1.78311 0.664172 1.62555 0.693249 1.4781 0.751946C1.33066 0.810643 1.19622 0.89781 1.08246 1.00847C0.968707 1.11913 0.877865 1.25111 0.815123 1.39688C0.752382 1.54266 0.718971 1.69936 0.716797 1.85804V16.1414C0.718971 16.3001 0.752382 16.4568 0.815123 16.6025C0.877865 16.7483 0.968707 16.8803 1.08246 16.9909C1.19622 17.1016 1.33066 17.1888 1.4781 17.2475C1.62555 17.3062 1.78311 17.3352 1.9418 17.333H16.0585C16.2171 17.3352 16.3747 17.3062 16.5222 17.2475C16.6696 17.1888 16.804 17.1016 16.9178 16.9909C17.0316 16.8803 17.1224 16.7483 17.1851 16.6025C17.2479 16.4568 17.2813 16.3001 17.2835 16.1414V1.85804C17.2813 1.69936 17.2479 1.54266 17.1851 1.39688C17.1224 1.25111 17.0316 1.11913 16.9178 1.00847C16.804 0.89781 16.6696 0.810643 16.5222 0.751946C16.3747 0.693249 16.2171 0.664172 16.0585 0.666376ZM5.7418 14.6164H3.2418V7.11638H5.7418V14.6164ZM4.4918 6.06638C4.14702 6.06638 3.81636 5.92941 3.57256 5.68562C3.32876 5.44182 3.1918 5.11116 3.1918 4.76638C3.1918 4.4216 3.32876 4.09093 3.57256 3.84714C3.81636 3.60334 4.14702 3.46638 4.4918 3.46638C4.67488 3.44561 4.86028 3.46375 5.03586 3.51961C5.21144 3.57547 5.37325 3.66778 5.51068 3.79051C5.64811 3.91324 5.75807 4.06361 5.83336 4.23178C5.90864 4.39995 5.94756 4.58212 5.94756 4.76638C5.94756 4.95063 5.90864 5.1328 5.83336 5.30097C5.75807 5.46914 5.64811 5.61952 5.51068 5.74224C5.37325 5.86497 5.21144 5.95728 5.03586 6.01314C4.86028 6.069 4.67488 6.08714 4.4918 6.06638ZM14.7585 14.6164H12.2585V10.5914C12.2585 9.58304 11.9001 8.92471 10.9918 8.92471C10.7107 8.92677 10.437 9.01494 10.2075 9.17735C9.97803 9.33976 9.80387 9.56861 9.70846 9.83304C9.64325 10.0289 9.61499 10.2352 9.62513 10.4414V14.608H7.12513C7.12513 14.608 7.12513 7.79138 7.12513 7.10804H9.62513V8.16638C9.85224 7.7723 10.1826 7.44764 10.5805 7.22738C10.9784 7.00711 11.4289 6.89959 11.8835 6.91638C13.5501 6.91638 14.7585 7.99138 14.7585 10.2997V14.6164Z" fill="#375BD2"/>
</svg>
