<svg width="19" height="19" viewBox="0 0 19 19" fill="none" xmlns="http://www.w3.org/2000/svg">
<path d="M13.5827 6.49925C12.8367 6.49894 12.1021 6.68347 11.4448 7.03636C11.3849 6.87838 11.2782 6.74239 11.1391 6.64646C11 6.55052 10.835 6.49918 10.666 6.49925H7.3327C7.22325 6.49919 7.11485 6.5207 7.01372 6.56256C6.91259 6.60442 6.8207 6.6658 6.7433 6.74319C6.66591 6.82059 6.60453 6.91248 6.56267 7.01361C6.52082 7.11474 6.4993 7.22313 6.49937 7.33259V17.3326C6.4993 17.442 6.52081 17.5504 6.56267 17.6516C6.60453 17.7527 6.66591 17.8446 6.7433 17.922C6.8207 17.9994 6.91259 18.0608 7.01372 18.1026C7.11485 18.1445 7.22325 18.166 7.3327 18.1659H10.666C10.7755 18.166 10.8839 18.1445 10.985 18.1026C11.0861 18.0608 11.178 17.9994 11.2554 17.922C11.3328 17.8446 11.3942 17.7527 11.4361 17.6516C11.4779 17.5504 11.4994 17.442 11.4994 17.3326V12.7493C11.4994 12.5282 11.5872 12.3163 11.7434 12.16C11.8997 12.0037 12.1117 11.9159 12.3327 11.9159C12.5537 11.9159 12.7657 12.0037 12.922 12.16C13.0782 12.3163 13.166 12.5282 13.166 12.7493V17.3326C13.166 17.442 13.1875 17.5504 13.2293 17.6516C13.2712 17.7527 13.3326 17.8446 13.41 17.922C13.4874 17.9994 13.5793 18.0608 13.6804 18.1026C13.7815 18.1445 13.8899 18.166 13.9994 18.1659H17.3327C17.4422 18.166 17.5505 18.1445 17.6517 18.1026C17.7528 18.0608 17.8447 17.9994 17.9221 17.922C17.9995 17.8446 18.0609 17.7527 18.1027 17.6516C18.1446 17.5504 18.1661 17.442 18.166 17.3326V11.0826C18.1645 9.86747 17.6812 8.70256 16.8219 7.84335C15.9627 6.98413 14.7978 6.50076 13.5827 6.49925ZM16.4994 16.4993H14.8327V12.7493C14.8327 12.0862 14.5693 11.4503 14.1005 10.9815C13.6316 10.5126 12.9957 10.2493 12.3327 10.2493C11.6697 10.2493 11.0338 10.5126 10.5649 10.9815C10.0961 11.4503 9.8327 12.0862 9.8327 12.7493V16.4993H8.16603V8.16592H9.8327V8.75186C9.8328 8.92453 9.88651 9.09291 9.98641 9.23374C10.0863 9.37457 10.2275 9.48092 10.3904 9.53808C10.5533 9.59525 10.73 9.60042 10.896 9.55289C11.062 9.50535 11.2091 9.40744 11.3171 9.2727C11.6911 8.79772 12.204 8.45139 12.7844 8.28206C13.3647 8.11273 13.9834 8.12885 14.5541 8.32818C15.1249 8.5275 15.6191 8.90008 15.9678 9.39388C16.3166 9.88768 16.5024 10.4781 16.4994 11.0826V16.4993ZM4.8327 6.49925H1.49937C1.38991 6.49919 1.28152 6.5207 1.18039 6.56256C1.07926 6.60442 0.987365 6.6658 0.90997 6.74319C0.832576 6.82059 0.771195 6.91248 0.729339 7.01361C0.687482 7.11474 0.66597 7.22313 0.666032 7.33259V17.3326C0.665969 17.442 0.68748 17.5504 0.729336 17.6516C0.771193 17.7527 0.832573 17.8446 0.909968 17.922C0.987363 17.9994 1.07925 18.0608 1.18039 18.1026C1.28152 18.1445 1.38991 18.166 1.49937 18.1659H4.8327C4.94215 18.166 5.05054 18.1445 5.15168 18.1026C5.25281 18.0608 5.3447 17.9994 5.4221 17.922C5.49949 17.8446 5.56087 17.7527 5.60273 17.6516C5.64458 17.5504 5.6661 17.442 5.66603 17.3326V7.33259C5.66609 7.22313 5.64458 7.11474 5.60273 7.01361C5.56087 6.91248 5.49949 6.82059 5.42209 6.74319C5.3447 6.6658 5.25281 6.60442 5.15168 6.56256C5.05054 6.5207 4.94215 6.49919 4.8327 6.49925ZM3.99937 16.4993H2.3327V8.16592H3.99937V16.4993ZM3.17824 0.285087C2.81354 0.263257 2.44821 0.315835 2.10447 0.439624C1.76073 0.563414 1.44576 0.755828 1.17871 1.00516C0.911668 1.2545 0.698128 1.55555 0.551081 1.89C0.404033 2.22446 0.326551 2.58533 0.323346 2.95066C0.320141 3.316 0.391279 3.67817 0.532436 4.01516C0.673593 4.35214 0.881817 4.65689 1.14445 4.91087C1.40708 5.16486 1.71862 5.36277 2.06014 5.49257C2.40166 5.62237 2.76601 5.68135 3.13103 5.66592H3.15463C3.5203 5.68764 3.88655 5.63457 4.23101 5.50996C4.57547 5.38535 4.89091 5.19182 5.15805 4.94118C5.42519 4.69054 5.63842 4.38807 5.78471 4.05224C5.93099 3.71641 6.00727 3.35428 6.00888 2.98797C6.01049 2.62167 5.93739 2.25888 5.79405 1.92178C5.65071 1.58468 5.44014 1.28035 5.17521 1.02738C4.91029 0.774404 4.59656 0.578107 4.2532 0.45048C3.90985 0.322853 3.54407 0.266576 3.17823 0.285087H3.17824ZM3.15464 3.99925H3.13103C2.98692 4.01675 2.84073 4.00324 2.70227 3.95961C2.56382 3.91598 2.43628 3.84326 2.32823 3.74631C2.22018 3.64936 2.13411 3.53042 2.07579 3.39748C2.01747 3.26454 1.98825 3.12067 1.99009 2.97551C1.99009 2.35376 2.4564 1.95175 3.17824 1.95175C3.32382 1.93234 3.47187 1.94435 3.61242 1.98698C3.75297 2.02961 3.88275 2.10186 3.99302 2.19887C4.10329 2.29588 4.1915 2.4154 4.25169 2.54936C4.31188 2.68333 4.34267 2.82864 4.34197 2.97551C4.34197 3.59725 3.87567 3.99925 3.15464 3.99925Z" fill="#0C162C"/>
</svg>
