<svg width="121" height="125" viewBox="0 0 121 125" fill="none" xmlns="http://www.w3.org/2000/svg">
<path d="M1.73519 46.6881L117.569 45.6312L121 124L1 123.106L1.73519 46.6881Z" fill="#A0B3F2"/>
<path d="M1.73633 46.688L56.4674 2.38196C58.7547 0.512165 62.1039 0.512165 64.3912 2.38196L117.57 45.5498" fill="#A0B3F2"/>
<g opacity="0.3">
<g opacity="0.3">
<g opacity="0.3">
<path opacity="0.3" d="M1.73633 46.688L56.4674 2.38196C58.7547 0.512165 62.1039 0.512165 64.3912 2.38196L117.57 45.5498" fill="black"/>
</g>
</g>
</g>
<path d="M1.00016 123.106C0.836788 122.943 10.1492 112.862 21.6673 100.587C33.267 88.23 42.7429 78.3932 42.8245 78.5558C42.9879 78.7184 33.7571 88.799 22.1574 101.075C10.6394 113.35 1.16354 123.268 1.00016 123.106Z" fill="#263238"/>
<path d="M121.001 124C120.837 124.163 111.77 114.244 100.742 101.969C89.7139 89.6933 80.8916 79.6126 81.055 79.45C81.2183 79.2874 90.2857 89.2055 101.314 101.481C112.342 113.757 121.082 123.837 121.001 124Z" fill="#263238"/>
<g opacity="0.5">
<g opacity="0.5">
<g opacity="0.5">
<path opacity="0.5" d="M117.57 45.6312L59.4899 91.9696L1.73633 46.6881" fill="black"/>
</g>
</g>
</g>
<path d="M7.53608 50.9153L7.29102 14.9014L108.748 13.5193L109.973 51.403L59.4898 91.4004L7.53608 50.9153Z" fill="#FAFAFA"/>
<path d="M7.53574 50.9153C7.53574 50.9153 7.86249 51.1592 8.516 51.647C9.1695 52.1347 10.0681 52.8664 11.2934 53.7606C13.744 55.6304 17.2566 58.3945 21.8312 61.8902C30.8986 68.8816 43.887 78.9622 59.6528 91.2378H59.4078C73.9483 79.6939 91.1845 66.0363 109.891 51.2405L109.809 51.4031C109.564 44.1678 109.319 36.6073 109.074 28.8842C108.911 23.6813 108.747 18.5597 108.584 13.5194L108.829 13.7633C67.985 14.3324 31.8788 14.7388 7.37236 15.064L7.53574 14.9014C7.53574 26.2828 7.53574 35.2253 7.53574 41.4037C7.53574 44.493 7.53574 46.8505 7.53574 48.4764C7.53574 49.2894 7.53574 49.8585 7.53574 50.2649C7.53574 50.7527 7.53574 50.9153 7.53574 50.9153C7.53574 50.9153 7.53574 50.7527 7.53574 50.3462C7.53574 49.9398 7.53574 49.2894 7.53574 48.5577C7.53574 46.9318 7.45405 44.5743 7.45405 41.485C7.37236 35.3066 7.29067 26.2828 7.20898 14.9827V14.8201H7.37236C31.8788 14.4949 67.9033 13.9259 108.829 13.3568H109.074V13.6007C109.238 18.641 109.401 23.7626 109.564 28.9655C109.809 36.6886 110.054 44.2491 110.3 51.4844V51.5657L110.218 51.647C91.5112 66.4427 74.275 80.1004 59.7345 91.563L59.6528 91.6443L59.5711 91.563C43.6419 79.2061 30.6535 69.0442 21.5861 61.9715C17.0933 58.4758 13.5807 55.7117 11.13 53.7606C9.9047 52.7851 9.00613 52.1347 8.43431 51.647C7.86249 51.1592 7.53574 50.9153 7.53574 50.9153Z" fill="#263238"/>
<path d="M92.7365 31.7296C92.7365 31.8109 77.2157 32.0548 58.1007 32.2174C38.9856 32.38 23.4648 32.38 23.4648 32.2987C23.4648 32.2174 38.9856 31.9735 58.1007 31.8109C77.2157 31.5671 92.7365 31.5671 92.7365 31.7296Z" fill="#263238"/>
<path d="M92.8165 41.8916C92.8165 41.9729 77.2958 42.2168 58.1807 42.3794C39.0657 42.542 23.5449 42.542 23.5449 42.4607C23.5449 42.3794 39.0657 42.1355 58.1807 41.9729C77.2958 41.8103 92.8165 41.729 92.8165 41.8916Z" fill="#263238"/>
<path d="M92.8165 53.598C92.8165 53.6793 77.2958 53.9232 58.1807 54.0858C39.0657 54.2484 23.5449 54.2484 23.5449 54.1671C23.5449 54.0858 39.0657 53.8419 58.1807 53.6793C77.2958 53.5167 92.8165 53.4354 92.8165 53.598Z" fill="#263238"/>
<path d="M92.8179 65.3047C92.8179 65.386 78.0323 65.6299 59.7341 65.7924C41.436 65.955 26.6504 65.955 26.6504 65.8737C26.6504 65.7925 41.436 65.5486 59.7341 65.386C78.0323 65.2234 92.8179 65.2234 92.8179 65.3047Z" fill="#263238"/>
<path d="M79.9107 75.6291C79.9107 75.6291 79.7474 75.6291 79.5023 75.7104C79.1755 75.7104 78.7671 75.7104 78.3587 75.7917C77.2967 75.7917 75.8263 75.873 74.1109 75.873C70.4349 75.9543 65.4519 76.0356 59.9788 76.1169C54.424 76.1981 49.441 76.2794 45.8467 76.2794C44.0496 76.2794 42.6609 76.2794 41.599 76.2794C41.1088 76.2794 40.7821 76.2794 40.4553 76.2794C40.2103 76.2794 40.0469 76.2794 40.0469 76.2794C40.0469 76.2794 40.2103 76.2794 40.4553 76.1981C40.7821 76.1981 41.1905 76.1981 41.599 76.1169C42.6609 76.1169 44.1313 76.0356 45.8467 76.0356C49.5227 75.9543 54.5057 75.873 59.9788 75.7917C65.5336 75.7104 70.5166 75.6291 74.1109 75.6291C75.908 75.6291 77.2967 75.6291 78.3587 75.6291C78.8488 75.6291 79.1755 75.6291 79.5023 75.6291C79.7474 75.6291 79.9107 75.6291 79.9107 75.6291Z" fill="#263238"/>
<path d="M66.8406 85.5472C66.8406 85.6285 63.5731 85.7911 59.4887 85.7911C55.4042 85.7911 52.1367 85.7098 52.1367 85.6285C52.1367 85.5472 55.4042 85.3846 59.4887 85.3846C63.4914 85.3033 66.8406 85.4659 66.8406 85.5472Z" fill="#263238"/>
</svg>
