<svg width="185" height="213" viewBox="0 0 185 213" fill="none" xmlns="http://www.w3.org/2000/svg">
<g opacity="0.34">
<path d="M8.7384 204.383C8.56644 204.556 6.84682 204.039 4.6113 203.005C2.37579 201.971 0.828125 200.937 0.828125 200.764C1.00009 200.592 2.71971 201.109 4.95523 202.143C7.19074 203.177 8.91037 204.211 8.7384 204.383Z" fill="white"/>
<path d="M25.0737 210.07C25.0737 210.243 23.1821 209.898 20.7746 209.209C18.5391 208.519 16.6475 207.83 16.8195 207.485C16.8195 207.313 18.883 207.658 21.1185 208.347C23.354 209.036 25.0737 209.726 25.0737 210.07Z" fill="white"/>
<path d="M41.9282 212.655C41.9282 212.828 40.0366 212.828 37.6291 212.655C35.2217 212.311 33.3301 211.966 33.3301 211.794C33.3301 211.621 35.2217 211.621 37.6291 211.794C40.0366 212.138 41.9282 212.483 41.9282 212.655Z" fill="white"/>
<path d="M59.1235 212.138C59.1235 212.311 57.2319 212.655 54.8245 212.828C52.417 213 50.5254 213 50.5254 212.655C50.5254 212.483 52.417 212.138 54.8245 211.966C57.2319 211.966 59.1235 211.966 59.1235 212.138Z" fill="white"/>
<path d="M75.9769 209.036C75.9769 209.209 74.2573 209.898 71.8498 210.415C69.4424 210.932 67.5508 211.104 67.5508 210.76C67.5508 210.587 69.4424 209.898 71.6779 209.381C74.0854 209.036 75.9769 208.864 75.9769 209.036Z" fill="white"/>
<path d="M91.9671 202.66C92.139 202.833 90.4194 203.867 88.1839 204.901C85.9484 205.935 84.2287 206.451 84.0568 206.279C83.8848 206.107 85.6044 205.073 87.84 204.039C90.0755 203.005 91.9671 202.488 91.9671 202.66Z" fill="white"/>
<path d="M106.241 193.01C106.413 193.182 105.037 194.561 103.146 196.111C101.254 197.49 99.5346 198.524 99.3627 198.179C99.1907 198.007 100.738 196.801 102.63 195.25C104.522 194.044 106.069 192.837 106.241 193.01Z" fill="white"/>
<path d="M117.935 180.43C118.107 180.602 117.247 182.325 115.7 184.049C114.152 185.944 112.776 187.151 112.432 186.978C112.26 186.806 113.464 185.255 114.84 183.532C116.56 181.808 117.763 180.43 117.935 180.43Z" fill="white"/>
<path d="M126.016 165.265C126.188 165.265 125.844 167.332 124.813 169.4C123.781 171.641 122.749 173.192 122.577 173.019C122.405 172.847 123.093 171.124 124.125 168.883C124.985 166.988 125.844 165.265 126.016 165.265Z" fill="white"/>
<path d="M129.113 148.549C129.285 148.549 129.629 150.444 129.285 152.857C129.113 155.27 128.425 157.165 128.253 156.993C128.081 156.993 128.253 155.097 128.425 152.685C128.769 150.444 128.941 148.549 129.113 148.549Z" fill="white"/>
<path d="M126.705 131.488C126.877 131.488 127.737 133.211 128.253 135.624C128.768 138.036 128.768 139.932 128.596 139.932C128.425 139.932 127.909 138.036 127.393 135.796C126.877 133.383 126.533 131.488 126.705 131.488Z" fill="white"/>
<path d="M119.311 115.978C119.483 115.806 120.859 117.357 122.063 119.425C123.266 121.493 123.954 123.388 123.61 123.388C123.438 123.561 122.407 121.837 121.203 119.769C119.999 117.874 118.967 116.151 119.311 115.978Z" fill="white"/>
<path d="M107.273 103.743C107.445 103.57 109.164 104.432 110.884 106.155C112.776 107.706 113.807 109.257 113.636 109.43C113.464 109.602 111.916 108.396 110.196 106.845C108.649 105.294 107.101 103.915 107.273 103.743Z" fill="white"/>
<path d="M91.625 96.6772C91.625 96.5049 93.6886 96.6772 95.9241 97.3665C98.1596 98.0558 99.8792 99.0898 99.7072 99.4345C99.5353 99.6068 97.8157 99.0898 95.5801 98.2282C93.5166 97.5389 91.625 97.0219 91.625 96.6772Z" fill="white"/>
<path d="M74.5996 97.022C74.5996 96.8497 76.3192 96.1603 78.7267 95.8157C81.1342 95.471 83.0258 95.6433 83.0258 95.988C83.0258 96.1603 81.1342 96.505 78.7267 96.6773C76.6632 97.022 74.7716 97.3666 74.5996 97.022Z" fill="white"/>
<path d="M59.8112 105.294C59.6393 105.121 60.843 103.57 62.7346 102.019C64.6262 100.468 66.5178 99.7789 66.6897 100.124C66.8617 100.296 65.1421 101.33 63.4224 102.881C61.5308 104.26 59.9832 105.466 59.8112 105.294Z" fill="white"/>
<path d="M53.1056 120.803C52.9336 120.803 52.7616 118.735 53.2775 116.495C53.7934 114.082 54.8252 112.359 54.9971 112.531C55.1691 112.704 54.6532 114.427 54.1373 116.667C53.6214 118.908 53.2775 120.803 53.1056 120.803Z" fill="white"/>
<path d="M56.3726 137.519C56.2006 137.692 54.9969 135.969 54.309 133.728C53.4492 131.488 53.2772 129.42 53.6212 129.42C53.7931 129.42 54.481 131.143 55.1688 133.384C55.8567 135.624 56.5445 137.347 56.3726 137.519Z" fill="white"/>
<path d="M67.5491 150.272C67.3772 150.444 65.6575 149.583 63.9379 147.859C62.0463 146.308 61.0146 144.585 61.1865 144.413C61.3585 144.24 62.7342 145.619 64.4538 147.17C66.3454 148.893 67.7211 150.099 67.5491 150.272Z" fill="white"/>
<path d="M83.1976 157.338C83.1976 157.51 81.1341 157.338 78.8986 156.476C76.663 155.787 74.9434 154.753 75.1154 154.408C75.2873 154.236 77.007 154.753 79.2425 155.614C81.478 156.476 83.3696 157.165 83.1976 157.338Z" fill="white"/>
<path d="M100.223 159.061C100.223 159.233 98.3315 159.578 95.9241 159.578C93.5166 159.578 91.625 159.061 91.625 158.888C91.625 158.716 93.5166 158.716 95.9241 158.716C98.3315 158.716 100.223 158.716 100.223 159.061Z" fill="white"/>
<path d="M117.075 155.786C117.075 155.959 115.355 156.82 113.119 157.337C110.884 157.854 108.82 158.027 108.82 157.854C108.82 157.682 110.54 156.993 112.947 156.476C115.183 155.959 117.075 155.614 117.075 155.786Z" fill="white"/>
<path d="M132.723 148.721C132.895 148.893 131.175 149.927 129.112 151.133C127.048 152.167 125.156 153.029 125.156 152.684C124.984 152.512 126.704 151.306 128.768 150.272C130.831 149.238 132.551 148.549 132.723 148.721Z" fill="white"/>
<path d="M146.481 138.381C146.653 138.553 145.277 139.932 143.386 141.483C141.494 143.034 139.946 144.068 139.774 143.896C139.602 143.723 140.978 142.345 142.87 140.794C144.761 139.243 146.309 138.209 146.481 138.381Z" fill="white"/>
<path d="M158.174 125.801C158.346 125.973 157.314 127.524 155.766 129.42C154.219 131.316 152.843 132.522 152.671 132.35C152.499 132.177 153.531 130.626 155.079 128.731C156.626 127.007 158.002 125.629 158.174 125.801Z" fill="white"/>
<path d="M167.632 111.498C167.804 111.67 167.116 113.393 165.74 115.461C164.536 117.529 163.333 119.08 163.161 118.908C162.989 118.735 163.848 117.012 165.052 114.944C166.256 112.876 167.46 111.325 167.632 111.498Z" fill="white"/>
<path d="M174.683 95.6432C174.855 95.6432 174.339 97.5388 173.479 99.7791C172.62 102.019 171.76 103.743 171.416 103.57C171.244 103.398 171.76 101.675 172.62 99.4345C173.479 97.3665 174.511 95.6432 174.683 95.6432Z" fill="white"/>
<path d="M179.497 79.0994C179.669 79.0994 179.497 80.9951 178.809 83.4077C178.293 85.648 177.605 87.5436 177.261 87.5436C177.089 87.5436 177.261 85.4756 177.949 83.2353C178.637 80.9951 179.153 79.0994 179.497 79.0994Z" fill="white"/>
<path d="M182.42 62.2112C182.592 62.2112 182.592 64.1068 182.248 66.5194C181.904 68.9321 181.388 70.8277 181.216 70.6554C181.045 70.6554 181.045 68.7597 181.388 66.3471C181.732 64.1068 182.248 62.2112 182.42 62.2112Z" fill="white"/>
<path d="M184.14 44.9783C184.312 44.9783 184.484 46.8739 184.312 49.2865C184.14 51.6991 183.796 53.5948 183.624 53.5948C183.452 53.5948 183.28 51.6991 183.452 49.2865C183.452 46.8739 183.796 44.9783 184.14 44.9783Z" fill="white"/>
<path d="M184.657 27.7452C184.828 27.7452 185 29.6409 185 32.0535C185 34.4661 184.657 36.3617 184.485 36.3617C184.313 36.3617 184.141 34.4661 184.141 32.0535C184.141 29.8132 184.313 27.7452 184.657 27.7452Z" fill="white"/>
<path d="M184.485 10.6846C184.657 10.6846 185 12.5802 185 14.9928C185 17.4054 184.828 19.3011 184.657 19.3011C184.485 19.3011 184.141 17.4054 184.141 14.9928C184.141 12.5802 184.313 10.6846 184.485 10.6846Z" fill="white"/>
<path d="M184.312 0C184.484 0 184.828 0.51699 184.828 1.03398C184.828 1.55097 184.656 2.06796 184.484 2.06796C184.312 2.06796 183.968 1.55097 183.968 1.03398C183.796 0.51699 183.968 0 184.312 0Z" fill="white"/>
</g>
</svg>
