<svg width="22" height="24" viewBox="0 0 22 24" fill="none" xmlns="http://www.w3.org/2000/svg">
<path d="M21.6008 2.06205C21.5557 1.89077 21.4659 1.73453 21.3406 1.60929C21.2154 1.48404 21.0592 1.39428 20.8879 1.34916C18.8365 0.816345 16.6764 0.873732 14.6562 1.51471C12.636 2.15569 10.8379 3.35419 9.46894 4.97222L8.35401 6.29605L5.74921 5.66757C5.11595 5.4468 4.4242 5.46262 3.80169 5.71212C3.17919 5.96161 2.66799 6.42793 2.36249 7.02495L0.162304 10.9248C0.0852123 11.0614 0.0413392 11.2143 0.0342306 11.371C0.027122 11.5277 0.0569772 11.6838 0.121384 11.8268C0.18579 11.9699 0.28294 12.0957 0.404984 12.1943C0.527028 12.2928 0.67054 12.3612 0.823924 12.394L3.89667 13.0527C3.63638 13.8451 3.45052 14.66 3.3415 15.4868C3.32174 15.6387 3.33713 15.7931 3.38648 15.9382C3.43584 16.0832 3.51784 16.2149 3.62616 16.3232L6.72626 19.4233C6.81908 19.5162 6.9293 19.5899 7.05061 19.6402C7.17192 19.6905 7.30195 19.7163 7.43326 19.7163C7.46207 19.7163 7.49088 19.7149 7.52018 19.7124C8.36552 19.6364 9.20059 19.4722 10.0118 19.2224L10.6554 22.2256C10.6883 22.379 10.7568 22.5224 10.8554 22.6444C10.9539 22.7664 11.0798 22.8635 11.2228 22.9279C11.3658 22.9923 11.5219 23.0222 11.6786 23.0151C11.8352 23.0081 11.9881 22.9642 12.1247 22.8872L16.0299 20.6846C16.5796 20.3506 17.0089 19.8507 17.2561 19.2569C17.5032 18.6631 17.5553 18.0062 17.4049 17.3809L16.7362 14.6219L17.9733 13.4844C19.5974 12.1193 20.8005 10.3211 21.4427 8.299C22.0848 6.27692 22.1397 4.11407 21.6008 2.06205ZM2.57197 10.7232L4.12812 7.96343C4.22478 7.77607 4.38945 7.63279 4.58838 7.56297C4.7873 7.49315 5.0054 7.50208 5.19794 7.58794L6.91535 8.00414L6.26535 8.77593C5.64911 9.5145 5.11612 10.3187 4.67603 11.174L2.57197 10.7232ZM15.0422 18.9454L12.3264 20.477L11.8969 18.4724C12.7675 18.0382 13.5786 17.4938 14.3103 16.8525L15.0538 16.1689L15.4572 17.8335C15.5095 18.039 15.4978 18.2557 15.4237 18.4544C15.3495 18.6531 15.2164 18.8244 15.0422 18.9454ZM16.6564 11.98L12.9719 15.3663C11.5134 16.6276 9.71449 17.4293 7.80146 17.6705L5.39716 15.2662C5.72008 13.3482 6.54888 11.551 7.79804 10.0602L9.47638 8.0675C9.50435 8.03824 9.53045 8.00726 9.55451 7.97473L10.9895 6.27105C12.0504 5.01794 13.4249 4.06885 14.9727 3.52069C16.5204 2.97253 18.1859 2.84493 19.799 3.15093C20.1124 4.76915 19.9862 6.44179 19.4335 7.99465C18.8808 9.5475 17.9218 10.9238 16.6564 11.98ZM15.7334 5.81629C15.4368 5.81629 15.1468 5.90426 14.9001 6.06908C14.6534 6.2339 14.4612 6.46817 14.3476 6.74226C14.2341 7.01635 14.2044 7.31795 14.2623 7.60892C14.3201 7.89989 14.463 8.16717 14.6728 8.37695C14.8826 8.58672 15.1498 8.72959 15.4408 8.78746C15.7318 8.84534 16.0334 8.81564 16.3075 8.70211C16.5816 8.58857 16.8158 8.39632 16.9806 8.14964C17.1455 7.90297 17.2334 7.61296 17.2334 7.31629C17.2335 7.1193 17.1947 6.92423 17.1193 6.74223C17.0439 6.56024 16.9334 6.39487 16.7941 6.25558C16.6548 6.11628 16.4895 6.00579 16.3075 5.93042C16.1255 5.85504 15.9304 5.81625 15.7334 5.81627L15.7334 5.81629Z" fill="#0C162C"/>
</svg>
