<svg width="21" height="21" viewBox="0 0 21 21" fill="none" xmlns="http://www.w3.org/2000/svg">
<path d="M16.9997 13.0001C16.4088 13.004 15.8262 13.1388 15.2937 13.3947C14.7611 13.6506 14.2919 14.0213 13.9197 14.4801L8.81966 12.1301C9.05945 11.3959 9.05945 10.6044 8.81966 9.87011L13.9197 7.52011C14.5213 8.24608 15.36 8.73619 16.2878 8.90395C17.2156 9.07172 18.1729 8.90634 18.9906 8.43702C19.8084 7.96769 20.434 7.22459 20.7572 6.33886C21.0804 5.45312 21.0803 4.4817 20.757 3.59602C20.4336 2.71035 19.8078 1.96736 18.99 1.49818C18.1722 1.02901 17.2149 0.863808 16.2871 1.03174C15.3593 1.19967 14.5207 1.68993 13.9192 2.41601C13.3177 3.14208 12.992 4.05729 12.9997 5.00011C13.0027 5.23835 13.0261 5.47588 13.0697 5.71011L7.78966 8.14011C7.22674 7.58969 6.51391 7.21763 5.74047 7.07054C4.96703 6.92345 4.16738 7.00788 3.44171 7.31325C2.71604 7.61861 2.09662 8.13133 1.66106 8.78718C1.2255 9.44302 0.993164 10.2128 0.993164 11.0001C0.993164 11.7874 1.2255 12.5572 1.66106 13.2131C2.09662 13.8689 2.71604 14.3816 3.44171 14.687C4.16738 14.9923 4.96703 15.0768 5.74047 14.9297C6.51391 14.7826 7.22674 14.4105 7.78966 13.8601L13.0697 16.2901C13.0261 16.5243 13.0027 16.7619 12.9997 17.0001C12.9997 17.7912 13.2343 18.5646 13.6738 19.2224C14.1133 19.8802 14.738 20.3929 15.4689 20.6956C16.1998 20.9984 17.0041 21.0776 17.78 20.9233C18.5559 20.7689 19.2687 20.388 19.8281 19.8285C20.3875 19.2691 20.7685 18.5564 20.9228 17.7805C21.0771 17.0046 20.9979 16.2003 20.6952 15.4694C20.3924 14.7385 19.8797 14.1138 19.2219 13.6742C18.5641 13.2347 17.7908 13.0001 16.9997 13.0001ZM16.9997 3.00011C17.3952 3.00011 17.7819 3.11741 18.1108 3.33718C18.4397 3.55694 18.696 3.8693 18.8474 4.23475C18.9988 4.6002 19.0384 5.00233 18.9612 5.3903C18.8841 5.77826 18.6936 6.13462 18.4139 6.41433C18.1342 6.69403 17.7778 6.88451 17.3898 6.96169C17.0019 7.03886 16.5997 6.99925 16.2343 6.84787C15.8688 6.6965 15.5565 6.44015 15.3367 6.11125C15.117 5.78236 14.9997 5.39568 14.9997 5.00011C14.9997 4.46968 15.2104 3.96097 15.5854 3.5859C15.9605 3.21083 16.4692 3.00011 16.9997 3.00011ZM4.99966 13.0001C4.6041 13.0001 4.21742 12.8828 3.88852 12.6631C3.55962 12.4433 3.30328 12.1309 3.1519 11.7655C3.00053 11.4 2.96092 10.9979 3.03809 10.6099C3.11526 10.222 3.30574 9.86561 3.58545 9.5859C3.86515 9.3062 4.22152 9.11571 4.60948 9.03854C4.99744 8.96137 5.39958 9.00098 5.76503 9.15236C6.13048 9.30373 6.44284 9.56008 6.6626 9.88897C6.88236 10.2179 6.99966 10.6046 6.99966 11.0001C6.99966 11.5305 6.78895 12.0393 6.41388 12.4143C6.0388 12.7894 5.5301 13.0001 4.99966 13.0001ZM16.9997 19.0001C16.6041 19.0001 16.2174 18.8828 15.8885 18.6631C15.5596 18.4433 15.3033 18.1309 15.1519 17.7655C15.0005 17.4 14.9609 16.9979 15.0381 16.6099C15.1153 16.222 15.3057 15.8656 15.5854 15.5859C15.8652 15.3062 16.2215 15.1157 16.6095 15.0385C16.9974 14.9614 17.3996 15.001 17.765 15.1524C18.1305 15.3037 18.4428 15.5601 18.6626 15.889C18.8824 16.2179 18.9997 16.6046 18.9997 17.0001C18.9997 17.5305 18.7889 18.0393 18.4139 18.4143C18.0388 18.7894 17.5301 19.0001 16.9997 19.0001Z" fill="#1A2B6B"/>
</svg>
