<svg width="20" height="20" viewBox="0 0 20 20" fill="none" xmlns="http://www.w3.org/2000/svg">
<path d="M18.5546 2.02309C18.3173 1.8257 18.0309 1.69633 17.726 1.64876C17.421 1.60118 17.1089 1.63718 16.8228 1.75291L1.8887 7.78237C1.56933 7.91377 1.29746 8.1392 1.1092 8.42872C0.920937 8.71824 0.825174 9.05817 0.834622 9.40339C0.84407 9.74862 0.958282 10.0828 1.1621 10.3616C1.36592 10.6404 1.6497 10.8506 1.97578 10.9643L4.99662 12.015L6.68037 17.583C6.70325 17.6574 6.73645 17.7282 6.77902 17.7933C6.78547 17.8033 6.79458 17.8108 6.80145 17.8205C6.85062 17.8891 6.91005 17.9497 6.97764 18.0003C6.99687 18.0149 7.01528 18.0287 7.03582 18.0417C7.11494 18.0942 7.20255 18.1325 7.29477 18.1551L7.30463 18.1559L7.31022 18.1583C7.36567 18.1696 7.4221 18.1753 7.47868 18.1754C7.48413 18.1754 7.48896 18.1728 7.49435 18.1727C7.57973 18.1712 7.66437 18.1565 7.74526 18.1291C7.76407 18.1227 7.7802 18.112 7.79846 18.1043C7.85877 18.0793 7.91592 18.0472 7.9687 18.0088C8.01097 17.9732 8.05325 17.9376 8.09555 17.902L10.3474 15.4158L13.7059 18.0175C14.0016 18.2477 14.3655 18.3729 14.7403 18.3732C15.1329 18.3727 15.5134 18.2372 15.8181 17.9895C16.1227 17.7417 16.3329 17.3968 16.4134 17.0125L19.1323 3.66535C19.194 3.36494 19.1727 3.05344 19.071 2.76417C18.9692 2.4749 18.7907 2.21873 18.5546 2.02309ZM7.80912 12.2803C7.69357 12.3953 7.61458 12.542 7.58207 12.7018L7.32414 13.9551L6.67076 11.7942L10.0585 10.0301L7.80912 12.2803ZM14.7273 16.7L10.7583 13.6254C10.5923 13.4971 10.384 13.4361 10.1749 13.4545C9.96591 13.4729 9.77148 13.5694 9.6304 13.7247L8.90922 14.5207L9.16409 13.282L15.0666 7.37951C15.2075 7.23881 15.2933 7.05231 15.3086 6.85378C15.3238 6.65525 15.2674 6.45783 15.1497 6.29728C15.0319 6.13672 14.8605 6.02365 14.6666 5.97854C14.4727 5.93344 14.269 5.95928 14.0925 6.05139L5.62141 10.4619L2.51778 9.32615L17.4998 3.33248L14.7273 16.7Z" fill="#0C162C"/>
</svg>
