<svg width="20" height="16" viewBox="0 0 20 16" fill="none" xmlns="http://www.w3.org/2000/svg">
<path d="M19.1597 1.29168C19.1598 1.14448 19.1209 0.999891 19.0469 0.87263C18.9729 0.745368 18.8666 0.639981 18.7386 0.567201C18.6107 0.494422 18.4657 0.45685 18.3186 0.458313C18.1714 0.459775 18.0272 0.500219 17.9007 0.575525C17.413 0.865847 16.8878 1.08818 16.3399 1.23636C15.5574 0.564886 14.5593 0.197445 13.5282 0.2012C12.397 0.202503 11.3106 0.643361 10.4984 1.43068C9.68618 2.21801 9.21171 3.29017 9.1752 4.42077C6.94518 4.06515 4.92406 2.9012 3.49724 1.15088C3.41127 1.04658 3.30148 0.964479 3.17712 0.911506C3.05277 0.858532 2.9175 0.83624 2.78272 0.846509C2.64802 0.8576 2.51805 0.901336 2.40405 0.973934C2.29005 1.04653 2.19545 1.14581 2.12842 1.26318C1.7847 1.86302 1.58728 2.53547 1.55221 3.22593C1.51715 3.91639 1.64541 4.60538 1.9266 5.23697L1.92497 5.23859C1.7986 5.31643 1.6943 5.42539 1.62206 5.55505C1.54982 5.68471 1.51206 5.83073 1.51237 5.97916C1.51084 6.1016 1.51819 6.22399 1.53435 6.34537C1.61946 7.39392 2.08417 8.37541 2.84132 9.10578C2.78995 9.20364 2.7586 9.31074 2.7491 9.42085C2.7396 9.53096 2.75213 9.64185 2.78597 9.74706C3.11607 10.7755 3.81806 11.6438 4.75457 12.1819C3.8031 12.5499 2.77575 12.6782 1.76302 12.5555C1.57558 12.532 1.38572 12.5729 1.22456 12.6714C1.06341 12.77 0.940546 12.9204 0.87612 13.098C0.811693 13.2756 0.809532 13.4698 0.869991 13.6488C0.93045 13.8277 1.04994 13.9809 1.20886 14.083C2.9506 15.2048 4.97859 15.8012 7.05033 15.8009C9.39972 15.8274 11.692 15.0766 13.5705 13.6655C15.4491 12.2543 16.8086 10.2619 17.4377 7.99817C17.7319 7.01204 17.8821 5.98857 17.8837 4.95947C17.8837 4.90495 17.8837 4.8488 17.8828 4.79265C18.3179 4.32343 18.655 3.77207 18.8742 3.1709C19.0935 2.56973 19.1905 1.93084 19.1597 1.29168ZM16.4041 3.96827C16.2665 4.13105 16.1968 4.3406 16.2096 4.55339C16.2178 4.69089 16.217 4.82922 16.217 4.95947C16.2153 5.82909 16.0878 6.69389 15.8385 7.52702C15.3248 9.45319 14.1795 11.1512 12.5861 12.3492C10.9927 13.5472 9.0434 14.1757 7.05033 14.1343C6.3344 14.1345 5.62093 14.0504 4.92468 13.8836C5.81252 13.5975 6.64267 13.1564 7.37667 12.5807C7.51185 12.4743 7.61079 12.3286 7.6599 12.1637C7.70902 11.9988 7.7059 11.8228 7.65098 11.6597C7.59606 11.4966 7.49202 11.3546 7.35315 11.253C7.21428 11.1514 7.04737 11.0953 6.87533 11.0923C6.18269 11.0815 5.52127 10.8023 5.03044 10.3135C5.15496 10.2899 5.27866 10.2606 5.40154 10.2256C5.58155 10.1744 5.73908 10.064 5.84876 9.91237C5.95844 9.76072 6.01389 9.57657 6.00618 9.38957C5.99848 9.20257 5.92806 9.0236 5.80628 8.88149C5.68449 8.73937 5.51842 8.64238 5.33481 8.60612C4.93275 8.52672 4.55443 8.35568 4.22924 8.10628C3.90404 7.85688 3.64074 7.53584 3.45981 7.16813C3.61041 7.18869 3.76198 7.20146 3.91391 7.20638C4.09439 7.20911 4.27107 7.15436 4.41839 7.05005C4.56571 6.94575 4.67603 6.79729 4.73341 6.62614C4.78839 6.45344 4.78556 6.26753 4.72535 6.09658C4.66514 5.92564 4.55083 5.77899 4.39975 5.67887C4.03321 5.43468 3.73295 5.10339 3.52588 4.71467C3.31881 4.32595 3.21138 3.89194 3.21322 3.45151C3.21322 3.39617 3.21485 3.34083 3.21811 3.28631C5.08582 5.02819 7.50837 6.05502 10.0589 6.18588C10.1877 6.19096 10.3159 6.16671 10.4339 6.11497C10.5519 6.06323 10.6566 5.98535 10.7401 5.88722C10.8227 5.78814 10.8813 5.67122 10.9111 5.54568C10.9408 5.42014 10.9411 5.2894 10.9118 5.16375C10.8641 4.96489 10.8398 4.76114 10.8393 4.55665C10.8401 3.84376 11.1236 3.16029 11.6277 2.65621C12.1318 2.15212 12.8153 1.86859 13.5282 1.86784C13.8949 1.86686 14.2579 1.94192 14.5942 2.0883C14.9306 2.23467 15.2329 2.44917 15.4821 2.71827C15.5782 2.82167 15.6992 2.89876 15.8335 2.94221C15.9678 2.98566 16.111 2.99403 16.2495 2.96651C16.5918 2.89989 16.9292 2.81017 17.2594 2.69796C17.0342 3.15877 16.7464 3.58625 16.4041 3.96827Z" fill="#0C162C"/>
</svg>
