<svg width="20" height="20" viewBox="0 0 20 20" fill="none" xmlns="http://www.w3.org/2000/svg">
<path d="M19.1597 3.29186C19.1598 3.14466 19.1209 3.00007 19.0469 2.87281C18.9729 2.74555 18.8666 2.64016 18.7386 2.56738C18.6107 2.49461 18.4657 2.45703 18.3186 2.4585C18.1714 2.45996 18.0272 2.5004 17.9007 2.57571C17.413 2.86603 16.8878 3.08836 16.3399 3.23654C15.5574 2.56507 14.5593 2.19763 13.5282 2.20138C12.397 2.20269 11.3106 2.64354 10.4984 3.43087C9.68618 4.21819 9.21171 5.29035 9.1752 6.42095C6.94518 6.06533 4.92406 4.90139 3.49724 3.15107C3.41127 3.04676 3.30148 2.96466 3.17712 2.91169C3.05277 2.85872 2.9175 2.83642 2.78272 2.84669C2.64802 2.85778 2.51805 2.90152 2.40405 2.97412C2.29005 3.04672 2.19545 3.14599 2.12842 3.26336C1.7847 3.8632 1.58728 4.53566 1.55221 5.22611C1.51715 5.91657 1.64541 6.60557 1.9266 7.23715L1.92497 7.23877C1.7986 7.31661 1.6943 7.42557 1.62206 7.55523C1.54982 7.68489 1.51206 7.83092 1.51237 7.97934C1.51084 8.10178 1.51819 8.22417 1.53435 8.34555C1.61946 9.3941 2.08417 10.3756 2.84132 11.106C2.78995 11.2038 2.7586 11.3109 2.7491 11.421C2.7396 11.5311 2.75213 11.642 2.78597 11.7472C3.11607 12.7757 3.81806 13.644 4.75457 14.1821C3.8031 14.5501 2.77575 14.6783 1.76302 14.5557C1.57558 14.5322 1.38572 14.573 1.22456 14.6716C1.06341 14.7702 0.940546 14.9206 0.87612 15.0982C0.811693 15.2758 0.809532 15.47 0.869991 15.6489C0.93045 15.8279 1.04994 15.981 1.20886 16.0832C2.9506 17.205 4.97859 17.8014 7.05033 17.8011C9.39972 17.8276 11.692 17.0768 13.5705 15.6657C15.4491 14.2545 16.8086 12.2621 17.4377 9.99836C17.7319 9.01222 17.8821 7.98875 17.8837 6.95966C17.8837 6.90513 17.8837 6.84898 17.8828 6.79283C18.3179 6.32361 18.655 5.77225 18.8742 5.17108C19.0935 4.56991 19.1905 3.93102 19.1597 3.29186ZM16.4041 5.96845C16.2665 6.13124 16.1968 6.34078 16.2096 6.55358C16.2178 6.69107 16.217 6.82941 16.217 6.95966C16.2153 7.82927 16.0878 8.69408 15.8385 9.52721C15.3248 11.4534 14.1795 13.1514 12.5861 14.3494C10.9927 15.5473 9.0434 16.1759 7.05033 16.1345C6.3344 16.1347 5.62093 16.0506 4.92468 15.8838C5.81252 15.5977 6.64267 15.1566 7.37667 14.5809C7.51185 14.4745 7.61079 14.3288 7.6599 14.1639C7.70902 13.999 7.7059 13.8229 7.65098 13.6599C7.59606 13.4968 7.49202 13.3547 7.35315 13.2532C7.21428 13.1516 7.04737 13.0954 6.87533 13.0925C6.18269 13.0817 5.52127 12.8025 5.03044 12.3137C5.15496 12.2901 5.27866 12.2608 5.40154 12.2258C5.58155 12.1745 5.73908 12.0642 5.84876 11.9126C5.95844 11.7609 6.01389 11.5768 6.00618 11.3898C5.99848 11.2028 5.92806 11.0238 5.80628 10.8817C5.68449 10.7396 5.51842 10.6426 5.33481 10.6063C4.93275 10.5269 4.55443 10.3559 4.22924 10.1065C3.90404 9.85706 3.64074 9.53603 3.45981 9.16832C3.61041 9.18887 3.76198 9.20164 3.91391 9.20657C4.09439 9.20929 4.27107 9.15454 4.41839 9.05024C4.56571 8.94593 4.67603 8.79747 4.73341 8.62632C4.78839 8.45363 4.78556 8.26771 4.72535 8.09677C4.66514 7.92582 4.55083 7.77917 4.39975 7.67906C4.03321 7.43487 3.73295 7.10358 3.52588 6.71486C3.31881 6.32613 3.21138 5.89212 3.21322 5.45169C3.21322 5.39636 3.21485 5.34102 3.21811 5.28649C5.08582 7.02837 7.50837 8.0552 10.0589 8.18607C10.1877 8.19114 10.3159 8.16689 10.4339 8.11515C10.5519 8.06341 10.6566 7.98553 10.7401 7.8874C10.8227 7.78832 10.8813 7.67141 10.9111 7.54587C10.9408 7.42032 10.9411 7.28958 10.9118 7.16393C10.8641 6.96507 10.8398 6.76133 10.8393 6.55683C10.8401 5.84395 11.1236 5.16047 11.6277 4.65639C12.1318 4.1523 12.8153 3.86878 13.5282 3.86803C13.8949 3.86704 14.2579 3.94211 14.5942 4.08848C14.9306 4.23485 15.2329 4.44936 15.4821 4.71845C15.5782 4.82185 15.6992 4.89895 15.8335 4.9424C15.9678 4.98585 16.111 4.99421 16.2495 4.96669C16.5918 4.90007 16.9292 4.81035 17.2594 4.69814C17.0342 5.15895 16.7464 5.58643 16.4041 5.96845Z" fill="#0C162C"/>
</svg>
