<svg width="150" height="150" viewBox="0 0 150 150" fill="none" xmlns="http://www.w3.org/2000/svg">
<circle cx="75" cy="75" r="75" fill="#375BD2"/>
<mask id="mask0_388_4884" style="mask-type:alpha" maskUnits="userSpaceOnUse" x="0" y="0" width="150" height="150">
<circle cx="75" cy="75" r="75" fill="#375BD2"/>
</mask>
<g mask="url(#mask0_388_4884)">
<path d="M13.542 155.589L31.2281 224.235L31.6104 276.471L124.186 255.773L118.023 210.444L115.787 172.741L141.162 215.882L157.121 180.39L121.155 123.128C114.807 117.316 107.568 113.096 99.017 110.489C94.8812 109.178 90.5049 108.58 85.4691 108.72C74.9011 112.67 64.1467 113.268 53.0663 110.522C51.817 110.731 50.0091 110.972 47.6503 111.383C47.5106 111.391 47.371 111.399 47.2313 111.406C27.5305 114.883 13.3626 132.203 13.3557 152.237L13.542 155.589Z" fill="#6084FD"/>
<path d="M47.9318 111.369C47.9318 111.369 9.53873 113.783 7.0418 154.551L7.99734 184.339L41.083 182.219L47.9318 111.369Z" fill="#6084FD"/>
<path d="M117.841 217.18C117.562 217.196 116.785 200.707 116.078 180.432C115.371 160.157 115.014 143.645 115.433 143.622C115.712 143.606 116.489 160.095 117.195 180.37C117.902 200.645 118.12 217.165 117.841 217.18Z" fill="#0C162C"/>
<path d="M87.8784 109.147C87.8784 109.147 88.0336 109.419 88.1966 109.83C88.3595 110.241 88.6777 110.924 88.8717 111.894C89.3916 113.686 89.6866 116.472 89.0272 119.731C88.3678 122.99 86.335 126.745 83.2857 129.857C80.1045 133.116 75.4645 135.335 70.2968 135.623C65.1291 135.91 60.1243 134.087 56.873 131.045C53.6217 128.004 51.9999 124.031 51.3945 120.702C50.7892 117.373 51.3322 114.541 51.9374 112.826C52.1701 111.973 52.5503 111.251 52.8063 110.817C53.0624 110.382 53.1865 110.095 53.1943 110.235C53.334 110.227 52.8296 111.236 52.3641 112.943C51.8986 114.65 51.6272 117.327 52.2248 120.516C52.8223 123.705 54.4287 127.398 57.6722 130.3C60.776 133.21 65.4937 134.909 70.3821 134.637C75.2705 134.365 79.7786 132.293 82.8279 129.182C85.8849 126.21 87.7936 122.741 88.5927 119.475C89.3995 116.348 89.1045 113.562 88.8717 111.894C88.0724 110.117 87.7387 109.155 87.8784 109.147Z" fill="#0C162C"/>
<path d="M83.2444 230.03L225.364 223.53L247.599 147.2L144.424 153.637L124.143 222.292L82.9726 225.141L83.2444 230.03Z" fill="#555C6C"/>
<path d="M60.3913 28.157C61.5084 23.0513 65.0078 20.4751 69.803 18.5273C74.5982 16.5795 80.3789 17.2388 84.6001 20.0864C87.5099 22.0261 89.7757 24.9823 93.0502 25.921C98.4585 27.4417 104.526 23.1816 109.826 25.2686C112.976 26.4945 114.862 30.1723 114.342 33.4235C113.683 36.6824 110.61 39.375 107.25 39.4217C110.812 40.4846 112.209 45.4505 110.284 48.6397C108.36 51.8288 104.24 53.3188 100.57 52.8223C96.8998 52.3259 93.5632 50.2698 90.6301 47.9111C87.697 45.5523 85.0277 42.8987 81.9704 40.8271C78.9132 38.7555 75.1887 37.2814 71.4254 37.6307C66.4129 38.1896 62.2928 42.2013 60.3066 46.7949C58.3204 51.3885 58.0491 56.5872 58.0492 61.6308C58.0494 66.6743 58.1971 71.8498 57.0644 76.6762C56.9558 77.2426 56.7153 77.9565 56.1644 78.1272C55.3419 78.4531 54.597 77.6539 54.1314 76.8392C49.0487 68.5757 45.5954 59.3811 44.082 49.7984C43.2128 44.2427 43.0574 38.9276 45.8738 34.1477C48.9618 29.2127 56.4494 25.2939 60.3913 28.157Z" fill="#0C162C"/>
<path d="M52.0525 52.0179L52.6832 108.723C52.8 118.383 54.849 132.56 70.0727 131.713C83.2868 129.998 86.5064 117.35 86.2888 108.396C86.1955 104.198 86.273 100.551 86.2497 100.132C86.2497 100.132 100.597 98.634 101.62 84.287C102.078 77.3967 101.845 63.1196 101.402 50.115C101.052 36.2646 89.917 24.9752 76.1519 24.3395L74.7475 24.2774C59.7642 24.4099 51.501 37.0579 52.0525 52.0179Z" fill="#F4DBCF"/>
<path d="M86.2392 99.8524C86.2392 99.8524 77.1453 100.078 67.8184 93.5913C67.8184 93.5913 71.7683 104.159 86.0221 103.507L86.2392 99.8524Z" fill="#E6BFAB"/>
<path d="M96.5984 59.4886C96.5208 60.6137 95.5897 61.5061 94.4646 61.4285C93.3473 61.4907 92.4549 60.5596 92.3928 59.4422C92.4704 58.3171 93.4014 57.4248 94.5265 57.5023C95.7913 57.5721 96.6759 58.3635 96.5984 59.4886Z" fill="#0C162C"/>
<path d="M97.8652 57.0359C97.6014 57.3308 96.127 56.0117 93.8846 55.9963C91.6344 55.8412 90.0127 56.912 89.8575 56.6405C89.7101 56.5086 89.9661 56.074 90.7808 55.6084C91.4559 55.1506 92.6896 54.6617 94.094 54.7237C95.4985 54.7858 96.6546 55.422 97.2444 55.9496C97.8263 56.3375 97.9971 56.8885 97.8652 57.0359Z" fill="#0C162C"/>
<path d="M75.1472 59.139C75.0696 60.2641 74.1385 61.1565 73.0134 61.0789C71.8961 61.1411 71.0037 60.21 70.9416 59.0926C71.0192 57.9675 71.9503 57.0752 73.0754 57.1527C74.2005 57.2303 75.0851 58.0217 75.1472 59.139Z" fill="#0C162C"/>
<path d="M76.248 56.2756C75.9841 56.5705 74.5098 55.2515 72.2674 55.236C70.0172 55.0809 68.3955 56.1518 68.2403 55.8802C68.0929 55.7483 68.3489 55.3138 69.1636 54.8482C69.8387 54.3904 71.0724 53.9015 72.4768 53.9635C73.8813 54.0255 75.0374 54.6617 75.6272 55.1893C76.2169 55.717 76.3799 56.1282 76.248 56.2756Z" fill="#0C162C"/>
<path d="M83.4801 72.9669C83.4723 72.8272 84.8612 72.6099 87.0959 72.4856C87.6546 72.4546 88.2132 72.4235 88.3296 71.9968C88.446 71.57 88.2753 71.0191 88.0968 70.3285C87.6001 68.9551 87.0957 67.4421 86.5913 65.929C84.5659 59.7372 83.1612 54.6316 83.4406 54.6161C83.7199 54.6005 85.5358 59.5432 87.5612 65.735C88.0656 67.2481 88.57 68.7611 88.927 70.1423C89.1055 70.8328 89.4236 71.5156 89.0512 72.3769C88.9349 72.8037 88.3917 73.1141 88.1124 73.1296C87.7012 73.2926 87.4141 73.1684 87.1347 73.184C84.7526 73.1763 83.4878 73.1065 83.4801 72.9669Z" fill="#0C162C"/>
<path d="M76.8223 74.1769C77.2413 74.1537 77.094 76.5435 79.0184 78.3979C80.9428 80.2523 83.5964 80.1048 83.4723 80.3919C83.4801 80.5316 82.9369 80.842 81.8118 80.7644C80.6867 80.6869 79.2668 80.3455 78.0873 79.2903C76.9079 78.2351 76.4034 76.722 76.3491 75.7444C76.4344 74.7589 76.6827 74.1847 76.8223 74.1769Z" fill="#0C162C"/>
<path d="M77.3101 47.6702C77.0618 48.2444 74.9357 47.8022 72.2898 48.0894C69.6361 48.2369 67.5722 48.9121 67.2618 48.3689C67.1066 48.0974 67.4945 47.5154 68.4489 47.0421C69.2636 46.5765 70.637 46.0798 72.1733 45.9944C73.7097 45.909 75.1297 46.2503 75.991 46.6228C76.9919 46.9874 77.4342 47.3831 77.3101 47.6702Z" fill="#0C162C"/>
<path d="M97.369 50.6193C96.9733 51.0616 95.3982 50.4486 93.7144 50.4021C91.8832 50.2237 90.3624 50.5885 90.052 50.0454C89.8968 49.7738 90.1528 49.3393 90.8279 48.8814C91.5029 48.4236 92.6047 48.0822 93.8695 48.1519C95.1343 48.2217 96.143 48.726 96.7327 49.2536C97.4621 49.7735 97.6329 50.3244 97.369 50.6193Z" fill="#0C162C"/>
<path d="M52.6423 62.6304C52.3552 62.5063 42.9275 59.2478 42.7727 69.0633C42.6179 78.8789 52.4644 77.0706 52.4489 76.7912C52.5653 76.3645 52.6423 62.6304 52.6423 62.6304Z" fill="#F4DBCF"/>
<path d="M49.5708 72.8869C49.5708 72.8869 49.4389 73.0344 49.1673 73.1896C48.8957 73.3448 48.3371 73.3758 47.9103 73.2595C46.9093 72.8948 45.9782 71.2654 46.0169 69.442C45.9703 68.604 46.2031 67.7504 46.5832 67.0288C46.9634 66.3071 47.3591 65.8649 47.91 65.6941C48.4609 65.5234 48.7636 65.9269 48.9188 66.1984C49.074 66.47 48.942 66.6175 49.0895 66.7494C49.0895 66.7494 49.361 66.5941 49.1981 66.1829C49.1903 66.0432 49.0351 65.7717 48.8799 65.5001C48.5928 65.376 48.3057 65.2518 47.8867 65.2751C47.1884 65.3139 46.3892 66.0589 46.009 66.7805C45.6288 67.5021 45.4039 68.4953 45.3186 69.4808C45.2876 71.4439 46.374 73.3449 47.6543 73.694C48.3681 73.9345 48.9113 73.6241 49.1828 73.4689C49.5863 73.1663 49.5786 73.0266 49.5708 72.8869Z" fill="#E6BFAB"/>
<path d="M104.467 47.2821C98.0965 48.617 91.1208 46.6231 86.3952 42.2625C82.9965 39.0891 80.653 34.7362 76.3621 33.1535C73.4988 32.0517 70.1624 32.5174 67.4389 33.9297C64.7154 35.342 62.4498 37.4294 60.3393 39.7883C62.714 47.2216 60.4951 55.1905 58.2452 62.6008C58.0124 63.4543 57.64 64.3156 56.965 64.7734C55.7468 65.5417 54.0242 64.7968 53.1241 63.7261C51.6265 61.9881 51.0677 59.4973 50.8038 57.2704C50.0897 51.9863 50.2059 46.516 51.7421 41.387C53.1385 36.2658 55.955 31.486 59.9587 27.901C65.0408 23.5556 71.7914 21.4991 78.542 21.9644C85.2926 22.4297 91.6088 25.1608 96.6138 29.5058C98.9649 31.4766 101.2 33.8741 102.201 36.7605" fill="#0C162C"/>
</g>
</svg>
