<svg id="Layer_1" data-name="Layer 1" xmlns="http://www.w3.org/2000/svg" viewBox="0 0 217.191 211.828"><defs><style>.cls-1{fill:#fff;fill-rule:evenodd;}</style></defs><path class="cls-1" d="M111.4,3A108.606,108.606,0,0,0,77.079,214.641c5.43,1,7.412-2.357,7.412-5.235,0-2.578-.094-9.407-.147-18.469-30.208,6.562-36.581-14.558-36.581-14.558-4.938-12.545-12.058-15.885-12.058-15.885-9.859-6.738.746-6.6.746-6.6,10.9.768,16.634,11.191,16.634,11.191,9.687,16.6,25.416,11.8,31.6,9.023.987-7.017,3.792-11.8,6.9-14.517-24.114-2.741-49.465-12.057-49.465-53.672A41.977,41.977,0,0,1,53.3,76.778c-1.116-2.747-4.843-13.788,1.065-28.739,0,0,9.118-2.92,29.863,11.132a102.94,102.94,0,0,1,54.374,0c20.732-14.052,29.833-11.132,29.833-11.132,5.925,14.951,2.2,25.992,1.081,28.739a41.9,41.9,0,0,1,11.163,29.14c0,41.718-25.391,50.9-49.583,53.587,3.9,3.353,7.373,9.981,7.373,20.11,0,14.518-.134,26.231-.134,29.791,0,2.9,1.956,6.283,7.467,5.222A108.611,108.611,0,0,0,111.4,3Z" transform="translate(-2.809 -3)"/></svg>