<svg id="Layer_1" data-name="Layer 1" xmlns="http://www.w3.org/2000/svg" viewBox="0 0 214 214"><defs><style>.cls-1{fill:#fff;}</style></defs><path class="cls-1" d="M144.348,77.618l-61.872,39.5,8.738,28.809,1.944-18.243S126.89,97.252,146.132,79.91a1.449,1.449,0,0,0,.169-1.962A1.471,1.471,0,0,0,144.348,77.618Z" transform="translate(-4 -2.905)"/><path class="cls-1" d="M111,2.905a107,107,0,1,0,107,107A107,107,0,0,0,111,2.905Zm57.869,61.409c-4.11,19.314-15.078,73.081-19.6,94.321a6.048,6.048,0,0,1-3.763,4.378,6.208,6.208,0,0,1-5.76-.758c-10.539-7.508-29.122-21.124-29.122-21.124s-9.772,9.229-16.094,15.194A4.5,4.5,0,0,1,90.3,157.4a4.559,4.559,0,0,1-3.138-3c-3.932-11.591-11.485-34.4-11.485-34.4s-16.157-5.127-28.471-8.81a4.279,4.279,0,0,1-.267-8.132C74.4,92.91,141.566,67.711,163.376,59.633a4.194,4.194,0,0,1,4.147.731A4.073,4.073,0,0,1,168.869,64.314Z" transform="translate(-4 -2.905)"/></svg>